{"glyphs":{"0":{"ha":930,"x_min":1,"x_max":861,"o":"m 432 958 q 545 942 490 958 q 647 895 600 925 q 734 821 694 864 q 802 726 774 779 q 846 614 830 674 q 861 489 861 554 q 846 364 861 424 q 802 253 830 304 q 734 159 774 201 q 647 86 694 117 q 545 40 600 56 q 432 24 490 24 q 318 40 373 24 q 216 86 264 56 q 129 159 168 117 q 61 253 89 201 q 17 364 33 304 q 1 489 1 424 q 17 614 1 554 q 61 726 33 674 q 129 821 89 779 q 216 895 168 864 q 318 942 264 925 q 432 958 373 958 m 432 192 q 500 208 465 192 q 567 253 536 223 q 617 328 597 283 q 637 432 637 373 q 620 536 637 490 q 573 612 602 581 q 507 660 544 644 q 432 676 471 676 q 356 660 393 676 q 291 612 319 644 q 245 536 262 581 q 228 432 228 490 q 247 328 228 373 q 296 253 266 283 q 361 208 326 223 q 432 192 397 192 z "},"1":{"ha":542,"x_min":28,"x_max":452,"o":"m 452 933 l 412 24 l 178 36 l 201 671 l 140 608 l 28 743 l 235 947 l 452 933 z "},"2":{"ha":807,"x_min":0,"x_max":743,"o":"m 673 29 l 117 29 l 117 183 q 183 200 146 186 q 259 238 220 215 q 337 292 298 261 q 409 357 376 322 q 466 430 442 392 q 498 506 490 468 q 498 581 507 544 q 457 650 490 617 q 392 681 431 677 q 312 673 354 685 q 230 635 271 661 q 157 579 189 610 l 0 803 q 24 828 7 812 q 66 860 41 843 q 126 895 92 878 q 200 927 160 913 q 286 949 240 941 q 380 958 331 958 q 450 955 413 958 q 523 941 486 951 q 594 911 559 930 q 657 859 629 891 q 707 781 686 827 q 737 671 728 735 q 735 586 743 629 q 708 501 726 543 q 663 421 689 460 q 609 349 637 382 q 456 196 543 269 l 671 196 l 673 29 z "},"3":{"ha":806,"x_min":0,"x_max":756,"o":"m 103 121 l 179 252 q 263 208 224 222 q 334 190 302 193 q 391 191 366 186 q 432 206 416 196 q 456 228 448 216 q 463 252 464 240 q 445 291 459 275 q 410 317 431 307 q 362 331 389 326 q 310 337 336 336 q 258 339 283 339 q 214 339 233 339 l 212 479 q 353 494 294 479 q 445 531 412 508 q 485 585 478 555 q 471 647 492 615 q 417 682 452 674 q 337 680 382 689 q 241 645 292 670 q 140 583 190 621 l 0 804 q 26 825 8 811 q 72 856 45 839 q 132 891 98 873 q 204 924 165 909 q 286 949 243 939 q 374 958 329 958 q 444 955 406 958 q 523 940 483 951 q 601 911 562 930 q 670 864 639 893 q 723 795 701 836 q 751 700 745 755 q 748 628 756 661 q 725 567 741 595 q 688 516 709 539 q 643 475 666 494 q 515 406 588 433 q 597 360 564 389 q 625 332 612 348 q 646 296 637 316 q 656 252 654 276 q 652 199 659 227 q 608 118 640 153 q 530 60 576 83 q 428 28 484 37 q 316 26 373 20 q 203 56 258 33 q 103 121 148 79 z "},"4":{"ha":897,"x_min":0,"x_max":793,"o":"m 793 446 l 793 286 l 646 286 l 646 18 l 450 18 l 450 282 l 1 282 l 0 422 l 443 953 l 646 953 l 650 446 l 793 446 m 285 433 l 464 432 l 472 669 l 285 433 z "},"5":{"ha":743,"x_min":0,"x_max":675,"o":"m 192 17 l 164 174 q 264 190 220 177 q 302 203 283 195 q 336 223 321 212 q 360 249 351 234 q 372 283 370 264 q 360 331 375 313 q 316 358 345 349 q 250 370 288 368 q 170 371 212 372 q 84 368 127 370 q 0 366 40 366 l 0 953 l 675 953 l 675 684 l 214 684 l 214 539 q 385 525 317 539 q 492 484 452 510 q 550 420 532 457 q 574 338 568 383 q 572 273 577 307 q 551 205 567 239 q 506 140 534 172 q 433 83 477 109 q 330 40 390 57 q 192 17 270 22 z "},"6":{"ha":667,"x_min":1,"x_max":606,"o":"m 317 22 q 189 49 248 22 q 89 124 130 77 q 24 234 47 171 q 3 367 1 296 q 25 528 5 452 q 79 668 45 604 q 159 785 113 732 q 259 878 205 838 q 375 944 314 918 q 502 985 437 971 l 589 743 q 429 692 501 728 q 366 656 397 677 q 309 607 335 635 q 262 543 282 578 q 234 461 243 507 q 259 472 244 465 q 291 484 273 479 q 399 489 347 496 q 494 457 452 482 q 565 389 536 432 q 601 288 593 347 q 589 195 606 242 q 535 110 572 149 q 443 47 498 72 q 317 22 387 23 m 423 262 q 403 292 416 281 q 372 307 389 302 q 337 310 355 311 q 304 304 319 309 q 254 261 267 287 q 245 212 241 236 q 256 189 247 199 q 278 171 264 178 q 309 161 292 163 q 345 161 326 158 q 379 174 363 164 q 408 198 396 184 q 425 229 420 212 q 423 262 429 246 z "},"7":{"ha":786,"x_min":0,"x_max":718,"o":"m 296 20 l 109 115 l 460 704 l 4 692 l 0 951 l 718 949 l 718 751 l 296 20 z "},"8":{"ha":790,"x_min":0,"x_max":721,"o":"m 721 647 q 709 572 721 608 q 676 504 697 536 q 626 446 655 472 q 564 400 597 419 q 612 331 594 368 q 631 254 631 294 q 608 162 631 205 q 545 88 585 119 q 452 38 505 56 q 340 20 399 20 q 229 38 281 20 q 138 88 177 56 q 76 162 98 119 q 53 254 53 205 q 59 296 53 274 q 77 338 66 317 q 101 378 87 359 q 131 411 115 397 q 78 461 102 435 q 36 515 54 486 q 9 576 19 543 q 0 647 0 608 q 28 768 0 711 q 105 868 56 825 q 221 936 154 911 q 367 961 288 961 q 505 936 441 961 q 617 868 570 911 q 693 768 665 825 q 721 647 721 711 m 354 722 q 298 714 323 722 q 254 691 273 706 q 224 654 235 675 q 214 608 214 633 q 226 565 214 585 q 259 531 239 545 q 304 510 279 517 q 354 503 329 503 q 411 510 384 503 q 459 531 439 517 q 493 564 480 545 q 505 608 505 584 q 495 654 505 633 q 465 691 484 675 q 417 714 445 706 q 354 722 389 722 m 340 175 q 379 182 360 175 q 414 202 399 189 q 438 231 429 214 q 447 268 447 248 q 438 297 447 283 q 414 321 429 311 q 379 339 399 332 q 340 346 360 346 q 296 339 315 346 q 263 321 276 332 q 243 297 250 311 q 236 268 236 283 q 263 201 236 228 q 340 175 290 175 z "},"9":{"ha":694,"x_min":0,"x_max":654,"o":"m 229 945 q 329 951 277 955 q 429 928 381 947 q 518 878 477 910 q 587 799 559 846 q 645 617 635 715 q 630 416 654 520 q 602 338 621 380 q 554 253 583 296 q 491 165 526 209 q 416 81 456 121 q 332 6 376 41 q 242 -54 288 -28 l 106 114 q 141 132 117 119 q 196 165 165 145 q 260 213 227 186 q 324 272 294 239 q 377 341 354 304 q 410 419 401 378 q 339 385 379 395 q 258 377 300 375 q 176 396 217 380 q 101 440 136 412 q 41 511 66 469 q 6 607 16 552 q 2 673 0 638 q 13 742 3 707 q 40 808 22 776 q 85 868 58 841 q 147 915 111 895 q 229 945 183 935 m 206 625 q 208 595 203 611 q 227 566 214 580 q 259 544 239 553 q 304 533 279 534 q 343 539 324 534 q 376 555 361 545 q 399 580 390 566 q 409 614 408 595 q 399 653 410 637 q 373 681 389 670 q 340 695 358 691 q 308 699 322 699 q 241 676 268 695 q 206 625 214 656 z "}," ":{"ha":555,"x_min":0,"x_max":0,"o":""},"!":{"ha":342,"x_min":0,"x_max":271,"o":"m 214 319 l 49 329 l 74 960 l 271 950 l 214 319 m 0 102 q 8 142 0 122 q 30 178 16 162 q 65 203 45 193 q 113 214 86 213 q 163 204 141 214 q 200 178 185 194 q 222 141 215 161 q 228 102 229 121 q 217 61 227 79 q 191 30 207 43 q 155 9 175 16 q 113 1 134 1 q 72 9 92 1 q 36 30 52 16 q 10 61 20 43 q 0 102 0 79 z "},"\"":{"ha":328,"x_min":1,"x_max":254,"o":"m 129 1040 l 254 1040 l 222 794 l 140 806 l 129 1040 l 129 1040 m 1 1032 l 117 1034 l 93 794 l 20 791 l 1 1032 l 1 1032 z "},"#":{"ha":917,"x_min":0,"x_max":850,"o":"m 800 399 l 817 232 l 684 232 l 667 82 l 533 98 l 533 215 l 350 215 l 350 65 l 183 65 l 183 199 l 50 199 l 33 332 l 183 349 l 183 515 l 0 515 l 0 665 l 183 665 l 167 899 l 350 899 l 350 682 l 567 682 l 583 865 l 750 848 l 733 682 l 850 682 l 850 532 l 717 532 l 700 382 l 800 399 m 350 366 l 550 382 l 567 532 l 350 515 l 350 366 z "},"$":{"ha":542,"x_min":5,"x_max":477,"o":"m 191 932 l 301 932 l 280 766 l 301 765 q 334 761 313 765 q 380 749 355 758 q 431 729 406 741 q 477 700 456 717 l 400 568 q 357 598 381 585 q 308 619 333 611 q 259 630 283 627 q 216 627 235 632 q 184 607 197 621 q 168 568 171 593 q 184 516 168 538 q 225 475 201 494 q 277 439 249 457 q 329 398 305 421 q 367 344 352 375 q 379 269 381 313 q 340 203 370 227 q 268 171 310 178 l 273 26 l 174 26 l 191 171 q 134 185 162 174 q 84 207 106 195 q 35 236 58 220 l 90 335 q 180 284 140 293 q 245 292 220 275 q 248 312 254 300 q 228 337 242 323 q 194 365 214 351 q 155 394 175 380 q 117 421 135 408 q 90 444 100 434 q 69 462 85 449 q 38 497 54 475 q 14 551 23 519 q 14 624 5 582 q 39 677 22 652 q 80 720 56 701 q 137 750 105 738 q 205 765 168 762 l 191 932 z "},"%":{"ha":791,"x_min":5,"x_max":718,"o":"m 671 827 l 151 58 l 35 142 l 568 901 l 671 827 m 559 100 q 500 112 528 100 q 451 145 472 124 q 419 194 431 166 q 407 253 407 222 q 419 312 407 284 q 451 359 431 339 q 500 391 472 380 q 559 403 528 403 q 622 391 593 403 q 672 359 651 380 q 706 312 694 339 q 718 253 718 284 q 706 194 718 222 q 672 145 694 166 q 622 112 651 124 q 559 100 593 100 m 560 316 q 520 300 536 316 q 504 261 504 283 q 520 222 504 237 q 560 206 536 206 q 604 222 587 206 q 621 261 621 237 q 604 300 621 283 q 560 316 587 316 m 161 868 q 101 856 129 868 q 51 823 73 844 q 18 773 30 802 q 5 713 5 745 q 18 653 5 681 q 51 604 30 625 q 101 571 73 583 q 161 559 129 559 q 225 571 196 559 q 276 604 254 583 q 310 653 298 625 q 322 713 322 681 q 310 773 322 745 q 276 823 298 802 q 225 856 254 844 q 161 868 196 868 m 161 644 q 137 648 149 644 q 118 662 126 653 q 104 681 109 670 q 100 704 100 692 q 118 747 100 730 q 161 764 136 764 q 209 747 191 764 q 228 704 228 730 q 209 662 228 680 q 161 644 191 644 z "},"&":{"ha":859,"x_min":3,"x_max":794,"o":"m 665 -50 q 626 -2 648 -29 q 581 52 607 21 q 524 121 555 83 q 393 38 458 68 q 251 7 327 9 q 190 12 222 6 q 130 31 159 18 q 76 63 100 43 q 34 110 51 83 q 10 172 17 137 q 11 250 3 207 q 41 339 21 298 q 85 412 61 379 q 134 472 109 446 q 180 521 159 499 q 106 651 127 592 q 88 758 85 711 q 114 841 91 806 q 170 901 136 877 q 244 936 203 924 q 323 947 285 947 q 401 933 367 947 q 461 895 436 920 q 500 837 486 871 q 519 762 515 803 q 512 700 522 730 q 483 641 501 670 q 439 585 464 612 q 387 530 414 557 q 419 491 404 509 q 452 455 435 473 q 487 418 469 437 q 526 379 505 400 q 542 401 533 389 q 560 425 551 414 q 576 446 569 436 q 585 461 583 455 l 708 349 q 670 295 689 321 q 636 250 650 269 q 697 187 669 218 q 747 132 726 156 q 794 78 772 103 l 665 -50 m 351 724 q 342 761 351 746 q 320 782 333 775 q 292 787 307 789 q 266 775 277 786 q 249 746 254 765 q 248 697 243 726 q 260 667 250 686 q 289 619 269 649 q 334 666 317 639 q 351 724 351 693 m 214 210 q 295 190 245 177 q 401 261 345 203 q 371 298 387 280 q 340 334 355 317 q 312 367 325 351 q 289 397 298 383 q 244 350 265 374 q 210 300 222 325 q 196 252 197 275 q 214 210 195 229 z "},"'":{"ha":220,"x_min":1,"x_max":150,"o":"m 1 1042 l 150 1042 l 113 750 l 16 762 l 1 1042 z "},"(":{"ha":543,"x_min":1,"x_max":475,"o":"m 430 1042 l 475 895 q 414 869 448 885 q 345 829 380 853 q 278 773 311 805 q 220 698 245 741 q 180 602 195 655 q 165 482 165 548 q 178 384 165 431 q 213 298 191 338 q 261 224 234 258 q 317 163 289 190 q 374 116 346 136 q 423 83 401 96 l 345 -52 q 92 175 180 39 q 2 494 3 311 q 30 667 1 583 q 112 824 58 751 q 247 952 167 896 q 430 1042 327 1009 z "},")":{"ha":542,"x_min":0,"x_max":474,"o":"m 46 1042 q 229 952 149 1009 q 363 824 309 896 q 446 667 418 751 q 473 494 474 583 q 449 325 473 404 q 381 179 425 246 q 273 54 336 111 q 131 -52 210 -3 l 53 83 q 102 116 75 96 q 159 163 130 136 q 215 224 187 190 q 263 298 242 258 q 298 384 285 338 q 311 482 311 431 q 296 602 311 548 q 256 698 281 655 q 198 773 231 741 q 131 829 165 805 q 62 869 96 853 q 0 895 28 885 l 46 1042 l 46 1042 z "},"*":{"ha":542,"x_min":4,"x_max":471,"o":"m 471 907 l 56 611 l 5 682 l 425 972 l 471 907 m 401 599 l 4 917 l 60 983 l 453 657 l 401 599 m 265 1040 l 278 561 l 196 559 l 192 1040 l 265 1040 z "},"+":{"ha":583,"x_min":0,"x_max":511,"o":"m 176 200 l 175 729 l 321 729 l 314 199 l 176 200 m 1 549 l 510 557 l 511 411 l 0 410 l 1 549 z "},",":{"ha":271,"x_min":1,"x_max":208,"o":"m 203 132 q 207 109 205 121 q 207 82 208 96 q 199 52 205 68 q 181 17 193 35 q 157 -15 171 1 q 129 -46 144 -31 q 98 -74 114 -60 q 68 -97 83 -87 l 19 -49 q 50 -23 37 -35 q 72 -2 63 -12 q 88 17 82 8 q 33 46 56 27 q 5 100 10 64 q 7 140 1 121 q 24 174 12 159 q 52 199 36 189 q 88 212 68 210 q 161 196 130 218 q 203 132 193 174 z "},"-":{"ha":497,"x_min":0,"x_max":440,"o":"m 437 375 l 0 375 l 1 524 l 440 515 l 437 375 z "},".":{"ha":301,"x_min":0,"x_max":229,"o":"m 0 102 q 8 142 0 122 q 30 178 16 162 q 65 203 45 193 q 113 214 86 213 q 163 204 141 214 q 200 178 185 194 q 222 141 215 161 q 228 102 229 121 q 217 61 227 79 q 191 30 207 43 q 155 9 175 16 q 113 1 134 1 q 72 9 92 1 q 36 30 52 16 q 10 61 20 43 q 0 102 0 79 z "},"/":{"ha":595,"x_min":0,"x_max":525,"o":"m 0 93 l 378 949 l 525 875 l 161 31 l 0 93 z "},":":{"ha":300,"x_min":0,"x_max":229,"o":"m 0 653 q 8 694 0 674 q 30 730 16 714 q 65 755 45 745 q 113 766 86 765 q 163 756 141 766 q 200 730 185 746 q 222 693 215 713 q 228 653 229 673 q 217 613 227 631 q 191 582 207 595 q 155 561 175 568 q 113 553 134 553 q 72 561 92 553 q 36 582 52 568 q 10 613 20 595 q 0 653 0 631 m 0 197 q 8 237 0 218 q 30 268 16 255 q 61 289 43 281 q 100 296 79 296 q 139 289 121 296 q 172 267 158 281 q 194 236 186 254 q 201 197 201 218 q 194 157 201 176 q 172 126 186 139 q 139 105 158 113 q 100 98 121 98 q 60 105 78 98 q 28 126 41 113 q 7 157 15 139 q 0 197 0 176 z "},";":{"ha":285,"x_min":0,"x_max":217,"o":"m 0 669 q 7 709 0 689 q 29 744 15 728 q 64 769 43 760 q 110 779 84 779 q 149 769 131 779 q 179 744 166 760 q 199 709 192 728 q 207 669 207 689 q 199 628 207 648 q 179 592 192 608 q 149 567 166 576 q 110 557 131 557 q 64 567 84 557 q 29 592 43 576 q 7 628 15 608 q 0 669 0 648 m 212 218 q 171 281 202 259 q 97 298 139 302 q 61 286 78 296 q 33 260 45 275 q 16 225 22 245 q 14 185 10 206 q 24 154 16 168 q 42 131 31 141 q 67 114 54 121 q 97 102 81 107 q 81 83 90 94 q 59 62 72 74 q 28 37 46 50 l 78 -12 q 107 12 92 -1 q 137 41 123 26 q 166 71 152 56 q 191 102 180 87 q 208 134 202 118 q 215 165 214 150 q 216 193 217 180 q 212 218 214 207 z "},"<":{"ha":653,"x_min":0,"x_max":581,"o":"m 551 211 l 436 83 l 0 488 l 456 880 l 581 737 l 253 468 l 551 211 z "},"=":{"ha":640,"x_min":1,"x_max":575,"o":"m 572 505 l 20 494 l 21 642 l 575 633 l 572 505 m 559 319 l 1 301 l 3 450 l 562 441 l 559 319 z "},">":{"ha":652,"x_min":0,"x_max":581,"o":"m 328 468 l 0 737 l 125 880 l 581 488 l 144 83 l 29 211 l 328 468 z "},"?":{"ha":833,"x_min":-1,"x_max":768,"o":"m 290 102 q 297 139 290 121 q 318 172 304 157 q 350 196 331 186 q 393 205 369 205 q 440 197 420 206 q 473 172 460 187 q 493 139 487 157 q 498 102 499 120 q 488 65 497 82 q 465 36 479 48 q 432 17 450 24 q 393 9 414 9 q 356 17 374 9 q 323 36 338 24 q 299 65 309 48 q 290 102 290 82 m 315 326 q 341 409 323 375 q 380 467 358 442 q 424 509 401 491 q 467 544 447 527 q 500 580 486 561 q 517 625 514 599 q 505 693 521 667 q 458 730 488 719 q 387 740 428 742 q 302 725 347 739 q 214 686 258 711 q 132 625 170 661 l -1 851 q 79 904 38 882 q 166 942 121 927 q 262 965 212 958 q 372 972 313 972 q 505 957 441 972 q 619 913 568 942 q 706 842 670 884 q 758 745 743 800 q 763 663 768 701 q 745 592 758 625 q 712 533 731 559 q 675 488 693 507 q 642 458 656 469 q 624 444 628 447 q 593 421 610 433 q 558 394 576 410 q 523 351 541 377 q 488 285 505 326 l 315 326 z "},"@":{"ha":957,"x_min":0,"x_max":890,"o":"m 883 564 q 884 456 890 502 q 863 378 878 410 q 827 325 848 345 q 785 292 806 304 q 744 275 763 279 q 713 271 724 271 q 688 274 702 271 q 659 282 673 277 q 630 297 644 288 q 604 317 616 305 q 554 279 581 294 q 498 257 527 264 q 441 250 470 250 q 389 256 413 250 q 326 278 354 264 q 276 313 297 292 q 243 361 255 334 q 232 424 232 389 q 240 481 232 453 q 265 535 249 510 q 304 581 281 560 q 355 614 327 601 q 450 635 402 635 q 543 610 497 635 l 651 610 q 653 543 651 572 q 658 493 655 514 q 666 457 661 472 q 674 433 670 443 q 697 408 684 411 q 727 411 715 403 q 744 438 739 419 q 750 486 750 458 q 745 549 750 514 q 705 639 732 601 q 639 702 677 677 q 557 738 602 726 q 467 750 512 750 q 414 747 443 750 q 353 736 385 745 q 291 710 322 727 q 235 667 260 694 q 198 622 215 647 q 168 566 181 597 q 148 500 155 536 q 140 424 140 465 q 154 334 140 372 q 189 267 168 295 q 234 220 210 239 q 277 189 257 201 q 339 162 304 172 q 409 150 374 153 q 480 150 445 146 q 543 163 515 153 l 604 37 q 502 7 558 14 q 389 4 446 -1 q 279 26 332 9 q 187 68 226 42 q 48 220 96 130 q 1 441 0 311 q 13 532 2 487 q 42 620 24 578 q 86 699 61 662 q 140 764 111 735 q 217 823 175 799 q 302 862 258 847 q 389 883 346 877 q 467 889 431 889 q 605 866 536 889 q 733 801 675 844 q 831 699 791 759 q 883 564 871 639 m 418 364 q 444 363 429 362 q 474 369 459 363 q 504 383 490 374 q 526 408 517 393 q 535 438 534 424 q 534 463 536 452 q 526 486 532 475 q 507 508 521 498 q 475 522 493 517 q 439 527 458 527 q 404 518 420 526 q 387 505 395 513 q 372 486 378 496 q 361 465 365 476 q 357 441 357 453 q 362 410 357 423 q 375 387 367 397 q 395 372 384 378 q 418 364 406 367 z "},"A":{"ha":986,"x_min":0,"x_max":920,"o":"m 631 277 l 329 277 l 236 0 l 0 65 l 355 972 l 551 960 l 920 79 l 736 12 l 631 277 m 578 395 l 460 671 l 368 395 l 578 395 z "},"B":{"ha":834,"x_min":0,"x_max":762,"o":"m 755 714 q 759 648 762 684 q 744 577 756 612 q 710 510 732 542 q 657 457 688 478 q 624 438 640 446 q 592 424 608 430 q 558 414 576 418 q 521 404 541 409 q 602 343 571 375 q 644 265 632 311 q 650 221 650 245 q 645 173 650 197 q 628 126 640 149 q 599 86 616 104 q 527 39 569 56 q 439 14 484 22 q 351 3 393 5 q 278 0 308 1 l 26 0 l 0 965 l 265 979 q 318 979 290 979 q 379 976 346 979 q 450 967 412 973 q 532 950 488 961 q 614 917 575 939 q 682 863 652 895 q 731 794 712 832 q 755 714 750 756 m 275 143 q 305 141 286 142 q 347 142 324 140 q 393 147 370 143 q 434 161 416 151 q 463 188 452 172 q 471 231 473 205 q 445 285 467 267 q 394 310 424 303 q 332 314 365 316 q 273 310 300 313 l 275 143 m 262 504 q 292 502 270 504 q 343 501 315 500 q 404 508 372 502 q 460 528 435 513 q 500 568 486 543 q 513 633 515 593 q 490 694 509 671 q 436 728 470 717 q 358 742 403 740 q 258 739 313 744 l 262 504 z "},"C":{"ha":916,"x_min":5,"x_max":856,"o":"m 804 58 q 746 26 779 39 q 677 6 713 13 q 603 -4 640 -1 q 531 -7 565 -7 q 402 9 466 -7 q 280 54 338 24 q 172 124 222 83 q 86 215 123 165 q 30 325 50 266 q 9 449 9 384 q 20 588 5 521 q 64 715 34 656 q 141 824 95 774 q 250 908 188 873 q 389 964 312 944 q 556 983 465 983 q 668 975 615 983 q 761 955 720 966 q 826 933 801 944 q 856 918 851 923 l 856 671 q 813 691 842 680 q 749 711 785 703 q 669 723 712 720 q 583 722 626 727 q 521 715 556 722 q 450 693 486 709 q 379 654 413 678 q 320 595 345 630 q 284 514 295 560 q 283 410 273 468 q 325 324 292 361 q 403 262 357 287 q 504 224 449 237 q 613 211 559 212 q 718 220 668 210 q 804 254 768 231 l 804 58 z "},"D":{"ha":1008,"x_min":0,"x_max":947,"o":"m 930 593 q 935 426 947 503 q 888 284 923 348 q 799 171 854 220 q 675 86 744 121 q 525 31 606 51 q 358 8 444 12 q 192 2 258 3 q 86 3 126 1 q 14 8 39 4 l 0 958 q 87 967 41 963 q 176 973 133 970 q 257 977 220 975 q 319 978 294 978 q 420 974 363 978 q 540 958 477 970 q 665 920 602 945 q 781 852 727 895 q 874 746 834 809 q 930 593 913 682 m 239 192 q 425 200 342 185 q 564 250 507 214 q 648 340 620 285 q 671 469 675 395 q 652 553 668 517 q 610 615 635 589 q 552 658 585 641 q 483 685 519 675 q 410 699 448 694 q 339 702 373 703 q 276 699 305 702 q 227 690 247 695 l 239 192 z "},"E":{"ha":862,"x_min":0,"x_max":787,"o":"m 250 739 l 254 419 l 551 419 l 551 289 l 260 289 l 262 183 l 703 197 l 708 12 l 12 0 l 0 971 l 787 971 l 787 739 l 250 739 z "},"F":{"ha":856,"x_min":0,"x_max":787,"o":"m 262 0 l 0 5 l 14 979 l 787 957 l 782 725 l 264 739 l 264 410 l 568 410 l 567 279 l 264 282 l 262 0 z "},"G":{"ha":930,"x_min":3,"x_max":854,"o":"m 581 720 q 519 712 555 720 q 447 690 484 705 q 376 650 410 675 q 317 591 342 626 q 281 510 292 556 q 280 406 270 464 q 322 313 290 352 q 400 250 355 274 q 499 216 445 226 q 606 211 553 206 l 606 328 l 490 328 l 490 485 l 804 485 l 804 250 l 804 54 l 804 1 l 620 1 l 528 1 q 399 16 463 1 q 277 59 335 31 q 170 125 219 86 q 84 214 120 165 q 27 322 47 264 q 6 446 6 380 q 17 585 3 517 q 62 711 31 652 q 139 821 92 771 q 247 906 185 870 q 386 961 309 941 q 555 981 463 981 q 666 972 614 981 q 758 952 718 964 q 824 931 798 941 q 854 916 849 920 l 854 668 q 812 688 840 677 q 747 708 784 699 q 668 720 711 716 q 581 720 625 724 z "},"H":{"ha":1057,"x_min":0,"x_max":987,"o":"m 958 970 l 987 22 l 762 12 l 754 286 l 292 277 l 292 0 l 1 0 l 0 949 l 290 949 l 290 435 l 747 447 l 729 961 l 958 970 z "},"I":{"ha":397,"x_min":45,"x_max":351,"o":"m 311 -5 l 45 8 l 85 981 l 351 966 l 311 -5 z "},"J":{"ha":661,"x_min":0,"x_max":586,"o":"m 339 975 l 586 962 q 585 865 586 926 q 581 728 584 803 q 575 571 578 653 q 565 415 571 490 q 551 278 559 340 q 533 180 543 216 q 491 99 519 132 q 431 45 464 66 q 363 15 397 25 q 300 4 328 5 q 212 7 256 1 q 130 25 169 13 q 58 54 91 37 q 0 90 24 71 l 65 245 q 85 236 72 242 q 116 224 98 231 q 153 212 134 218 q 193 202 173 205 q 230 200 212 199 q 261 207 248 200 q 302 275 290 221 q 319 425 315 330 q 327 657 324 520 q 339 975 329 794 z "},"K":{"ha":804,"x_min":0,"x_max":741,"o":"m 395 461 l 714 146 l 582 14 l 289 347 l 317 14 l 53 0 l 0 965 l 264 978 l 278 635 l 568 978 l 741 819 l 395 461 z "},"L":{"ha":694,"x_min":0,"x_max":596,"o":"m 40 0 l 0 966 l 265 979 l 292 180 l 589 201 l 596 26 l 40 0 z "},"M":{"ha":1068,"x_min":3,"x_max":999,"o":"m 530 267 l 800 945 l 983 950 l 999 26 l 781 24 l 778 525 l 558 -5 l 460 5 l 248 469 l 262 1 l 16 1 l 3 971 l 211 971 l 530 267 z "},"N":{"ha":912,"x_min":0,"x_max":840,"o":"m 248 589 l 261 0 l 0 0 l 0 972 l 197 972 l 631 354 l 602 962 l 825 971 l 840 26 l 657 12 l 248 589 z "},"O":{"ha":1082,"x_min":0,"x_max":1022,"o":"m 504 990 q 645 972 578 990 q 769 922 712 954 q 873 843 827 889 q 953 741 920 797 q 1004 621 986 686 q 1022 488 1022 557 q 1004 356 1022 419 q 953 237 986 292 q 873 137 920 182 q 769 60 827 92 q 645 11 712 28 q 504 -7 578 -7 q 369 11 434 -7 q 249 60 304 28 q 147 137 193 92 q 68 237 101 182 q 18 355 36 292 q 0 488 0 418 q 18 621 0 557 q 68 741 36 686 q 147 843 101 797 q 249 922 193 889 q 369 972 304 954 q 504 990 434 990 m 504 187 q 621 210 567 187 q 713 270 674 232 q 774 356 752 307 q 796 460 796 406 q 774 569 796 519 q 713 655 752 619 q 621 710 674 690 q 504 730 567 730 q 396 710 446 730 q 308 655 345 690 q 248 569 270 619 q 227 460 227 519 q 248 356 227 406 q 308 270 270 307 q 396 210 345 232 q 504 187 446 187 z "},"P":{"ha":824,"x_min":0,"x_max":757,"o":"m 757 704 q 756 646 757 674 q 749 593 755 618 q 729 542 743 567 q 690 492 715 517 q 634 446 667 465 q 563 416 601 428 q 485 398 526 404 q 407 388 444 391 q 336 385 369 385 q 279 385 302 385 l 279 14 l 26 0 l 0 970 l 265 983 q 320 983 290 983 q 385 980 350 983 q 460 971 420 977 q 545 956 500 966 q 628 922 589 945 q 695 864 667 898 q 741 790 724 831 q 757 704 757 749 m 271 522 q 302 521 279 522 q 355 520 326 519 q 418 526 385 521 q 476 546 450 532 q 518 586 503 560 q 530 652 534 611 q 508 716 527 691 q 454 755 488 742 q 373 772 420 769 q 265 771 325 776 l 271 522 z "},"Q":{"ha":1084,"x_min":1,"x_max":1017,"o":"m 1017 488 q 989 329 1017 405 q 913 190 962 252 q 794 83 863 127 q 642 20 726 39 l 822 -86 l 710 -228 l 404 5 q 248 65 321 20 q 120 174 175 109 q 33 319 65 239 q 1 488 1 400 q 19 619 1 556 q 70 737 37 682 q 148 837 102 792 q 249 915 193 882 q 368 964 304 947 q 501 982 432 982 q 641 964 574 982 q 765 915 707 947 q 868 837 822 882 q 948 737 915 792 q 999 619 981 682 q 1017 488 1017 556 m 501 189 q 617 210 564 189 q 709 267 670 231 q 769 350 747 302 q 791 452 791 398 q 769 559 791 510 q 709 643 747 608 q 617 699 670 679 q 501 718 564 718 q 395 699 444 718 q 309 643 345 679 q 251 559 272 608 q 229 452 229 510 q 251 350 229 398 q 309 267 272 302 q 395 210 345 231 q 501 189 444 189 z "},"R":{"ha":834,"x_min":0,"x_max":760,"o":"m 688 489 q 638 450 666 467 q 579 421 610 433 q 517 402 549 410 q 457 392 486 395 l 714 132 l 582 14 l 271 367 l 278 14 l 26 0 l 0 965 l 265 979 q 384 976 314 979 q 543 953 453 972 q 621 920 583 944 q 687 863 658 897 q 736 788 717 829 q 758 701 755 746 q 759 645 760 671 q 751 593 758 618 q 729 542 744 567 q 688 489 714 516 m 529 636 q 505 701 524 675 q 452 740 486 726 q 372 757 418 754 q 265 755 325 760 l 265 503 q 299 500 275 503 q 354 499 323 498 q 417 505 385 499 q 476 525 450 510 q 517 566 502 540 q 529 636 532 593 z "},"S":{"ha":830,"x_min":1,"x_max":770,"o":"m 144 275 q 285 184 225 205 q 385 196 345 164 q 393 233 401 212 q 363 275 386 253 q 308 321 341 298 q 242 367 275 345 q 178 411 208 390 q 132 449 149 432 q 115 463 128 452 q 86 492 102 473 q 52 535 69 510 q 22 592 34 560 q 5 661 9 623 q 11 742 1 699 q 63 841 26 797 q 150 916 99 885 q 265 964 201 947 q 397 981 328 981 q 507 975 456 981 q 603 957 558 970 q 690 924 648 945 q 770 873 731 904 l 637 647 q 569 701 608 677 q 491 740 531 725 q 411 758 450 754 q 341 751 372 761 q 289 716 309 741 q 265 647 268 690 q 281 581 265 610 q 321 528 296 552 q 378 481 347 503 q 443 437 410 460 q 507 390 476 415 q 560 332 537 364 q 594 260 583 300 q 602 168 606 220 q 573 83 597 118 q 514 27 549 48 q 435 -2 479 6 q 346 -7 391 -10 q 291 1 318 -5 q 238 14 264 6 q 189 32 212 22 q 144 51 165 41 q 53 102 96 73 q 99 188 79 150 q 116 220 108 204 q 131 248 124 235 q 141 267 137 260 q 144 275 144 275 z "},"T":{"ha":934,"x_min":0,"x_max":861,"o":"m 541 764 l 553 9 l 302 0 l 289 755 l 7 742 l 0 947 l 854 974 l 861 777 l 541 764 z "},"U":{"ha":1036,"x_min":0,"x_max":966,"o":"m 0 972 l 300 972 q 298 698 300 819 q 300 485 296 577 q 315 330 303 393 q 352 226 326 266 q 422 170 378 186 q 534 157 466 153 q 646 187 603 160 q 712 263 688 214 q 743 380 735 311 q 752 536 751 449 q 749 726 753 623 q 746 947 746 829 q 763 947 746 947 q 804 947 779 947 q 857 947 828 947 q 909 947 885 947 q 950 947 934 947 q 966 947 966 947 q 966 758 966 840 q 965 614 966 676 q 962 507 964 553 q 958 424 961 461 q 951 356 956 387 q 942 293 947 326 q 896 175 931 230 q 805 80 860 121 q 677 16 749 39 q 522 -7 606 -7 q 376 6 441 -7 q 261 41 311 20 q 173 92 210 63 q 109 150 136 120 q 65 211 83 180 q 39 267 48 241 q 26 312 32 286 q 17 374 21 337 q 9 463 13 411 q 4 586 6 514 q 1 753 2 658 q 0 972 0 848 z "},"V":{"ha":1070,"x_min":-1,"x_max":1003,"o":"m 1003 921 l 604 -1 l 387 12 l -1 908 l 195 972 l 467 314 l 722 990 l 1003 921 z "},"W":{"ha":1333,"x_min":0,"x_max":1274,"o":"m 884 326 l 1044 965 l 1274 924 l 1028 9 l 812 33 l 671 574 l 468 -1 l 229 -1 l 0 942 l 269 974 l 400 389 l 581 974 l 724 962 l 884 326 z "},"X":{"ha":996,"x_min":8,"x_max":918,"o":"m 722 -4 l 450 311 l 172 5 l 8 172 l 306 486 l 20 803 l 211 974 l 476 663 l 717 939 l 851 814 l 591 519 l 918 157 l 722 -4 z "},"Y":{"ha":1024,"x_min":0,"x_max":954,"o":"m 632 475 l 659 5 l 416 -8 l 389 449 l 0 838 l 175 986 l 524 610 l 806 972 l 954 864 l 632 475 z "},"Z":{"ha":828,"x_min":0,"x_max":686,"o":"m 635 171 l 627 4 l 66 22 l 66 160 l 439 745 l 0 745 l 0 974 l 686 964 l 686 782 l 345 175 l 635 171 z "},"[":{"ha":355,"x_min":0,"x_max":283,"o":"m 0 966 l 278 966 l 278 873 l 132 873 l 158 94 l 278 107 l 283 16 l 26 1 l 0 966 l 0 966 z "},"\\":{"ha":597,"x_min":0,"x_max":525,"o":"m 364 31 l 0 875 l 147 949 l 525 93 l 364 31 z "},"]":{"ha":347,"x_min":0,"x_max":278,"o":"m 257 1 l 0 16 l 5 107 l 125 94 l 146 879 l 0 879 l 0 972 l 278 972 l 257 1 z "},"^":{"ha":751,"x_min":3,"x_max":677,"o":"m 103 561 l 3 661 l 353 1036 l 677 661 l 553 561 l 339 827 l 103 561 l 103 561 z "},"_":{"ha":762,"x_min":0,"x_max":689,"o":"m 686 -195 l 0 -195 l 1 -72 l 689 -79 l 686 -195 z "},"`":{"ha":231,"x_min":0,"x_max":231,"o":"m 0 954 l 64 1043 l 231 903 l 186 844 l 0 954 z "},"a":{"ha":986,"x_min":0,"x_max":920,"o":"m 631 277 l 329 277 l 236 0 l 0 65 l 355 972 l 551 960 l 920 79 l 736 12 l 631 277 m 578 395 l 460 671 l 368 395 l 578 395 z "},"b":{"ha":833,"x_min":0,"x_max":762,"o":"m 755 714 q 759 648 762 684 q 744 577 756 612 q 710 510 732 542 q 657 457 688 478 q 624 438 640 446 q 592 424 608 430 q 558 414 576 418 q 521 404 541 409 q 602 343 571 375 q 644 265 632 311 q 650 221 650 245 q 645 173 650 197 q 628 126 640 149 q 599 86 616 104 q 527 39 569 56 q 439 14 484 22 q 351 3 393 5 q 278 0 308 1 l 26 0 l 0 965 l 265 979 q 318 979 290 979 q 379 976 346 979 q 450 967 412 973 q 532 950 488 961 q 614 917 575 939 q 682 863 652 895 q 731 794 712 832 q 755 714 750 756 m 275 143 q 305 141 286 142 q 347 142 324 140 q 393 147 370 143 q 434 161 416 151 q 463 188 452 172 q 471 231 473 205 q 445 285 467 267 q 394 310 424 303 q 332 314 365 316 q 273 310 300 313 l 275 143 m 262 504 q 292 502 270 504 q 343 501 315 500 q 404 508 372 502 q 460 528 435 513 q 500 568 486 543 q 513 633 515 593 q 490 694 509 671 q 436 728 470 717 q 358 742 403 740 q 258 739 313 744 l 262 504 z "},"c":{"ha":918,"x_min":5,"x_max":856,"o":"m 804 58 q 746 26 779 39 q 677 6 713 13 q 603 -4 640 -1 q 531 -7 565 -7 q 402 9 466 -7 q 280 54 338 24 q 172 124 222 83 q 86 215 123 165 q 30 325 50 266 q 9 449 9 384 q 20 588 5 521 q 64 715 34 656 q 141 824 95 774 q 250 908 188 873 q 389 964 312 944 q 556 983 465 983 q 668 975 615 983 q 761 955 720 966 q 826 933 801 944 q 856 918 851 923 l 856 671 q 813 691 842 680 q 749 711 785 703 q 669 723 712 720 q 583 722 626 727 q 521 715 556 722 q 450 693 486 709 q 379 654 413 678 q 320 595 345 630 q 284 514 295 560 q 283 410 273 468 q 325 324 292 361 q 403 262 357 287 q 504 224 449 237 q 613 211 559 212 q 718 220 668 210 q 804 254 768 231 l 804 58 z "},"d":{"ha":1008,"x_min":0,"x_max":947,"o":"m 930 593 q 935 426 947 503 q 888 284 923 348 q 799 171 854 220 q 675 86 744 121 q 525 31 606 51 q 358 8 444 12 q 192 2 258 3 q 86 3 126 1 q 14 8 39 4 l 0 958 q 87 967 41 963 q 176 973 133 970 q 257 977 220 975 q 319 978 294 978 q 420 974 363 978 q 540 958 477 970 q 665 920 602 945 q 781 852 727 895 q 874 746 834 809 q 930 593 913 682 m 239 192 q 425 200 342 185 q 564 250 507 214 q 648 340 620 285 q 671 469 675 395 q 652 553 668 517 q 610 615 635 589 q 552 658 585 641 q 483 685 519 675 q 410 699 448 694 q 339 702 373 703 q 276 699 305 702 q 227 690 247 695 l 239 192 z "},"e":{"ha":861,"x_min":0,"x_max":787,"o":"m 787 739 l 250 739 l 254 419 l 551 419 l 551 289 l 260 289 l 262 183 l 703 197 l 708 12 l 12 0 l 0 971 l 787 971 l 787 739 l 787 739 z "},"f":{"ha":856,"x_min":0,"x_max":787,"o":"m 262 0 l 0 5 l 14 979 l 787 957 l 782 725 l 264 739 l 264 410 l 568 410 l 567 279 l 264 282 l 262 0 z "},"g":{"ha":929,"x_min":3,"x_max":854,"o":"m 581 720 q 519 712 555 720 q 447 690 484 705 q 376 650 410 675 q 317 591 342 626 q 281 510 292 556 q 280 406 270 464 q 322 313 290 352 q 400 250 355 274 q 499 216 445 226 q 606 211 553 206 l 606 328 l 490 328 l 490 485 l 804 485 l 804 250 l 804 54 l 804 1 l 620 1 l 528 1 q 399 16 463 1 q 277 59 335 31 q 170 125 219 86 q 84 214 120 165 q 27 322 47 264 q 6 446 6 380 q 17 585 3 517 q 62 711 31 652 q 139 821 92 771 q 247 906 185 870 q 386 961 309 941 q 555 981 463 981 q 666 972 614 981 q 758 952 718 964 q 824 931 798 941 q 854 916 849 920 l 854 668 q 812 688 840 677 q 747 708 784 699 q 668 720 711 716 q 581 720 625 724 z "},"h":{"ha":1057,"x_min":0,"x_max":987,"o":"m 958 970 l 987 22 l 762 12 l 754 286 l 292 277 l 292 0 l 1 0 l 0 949 l 290 949 l 290 435 l 747 447 l 729 961 l 958 970 z "},"i":{"ha":459,"x_min":45,"x_max":351,"o":"m 311 -5 l 45 8 l 85 981 l 351 966 l 311 -5 l 311 -5 z "},"j":{"ha":661,"x_min":0,"x_max":586,"o":"m 339 975 l 586 962 q 585 865 586 926 q 581 728 584 803 q 575 571 578 653 q 565 415 571 490 q 551 278 559 340 q 533 180 543 216 q 491 99 519 132 q 431 45 464 66 q 363 15 397 25 q 300 4 328 5 q 212 7 256 1 q 130 25 169 13 q 58 54 91 37 q 0 90 24 71 l 65 245 q 85 236 72 242 q 116 224 98 231 q 153 212 134 218 q 193 202 173 205 q 230 200 212 199 q 261 207 248 200 q 302 275 290 221 q 319 425 315 330 q 327 657 324 520 q 339 975 329 794 z "},"k":{"ha":804,"x_min":0,"x_max":741,"o":"m 741 819 l 395 461 l 714 146 l 582 14 l 289 347 l 317 14 l 53 0 l 0 965 l 264 978 l 278 635 l 568 978 l 741 819 l 741 819 z "},"l":{"ha":667,"x_min":0,"x_max":596,"o":"m 40 0 l 0 966 l 265 979 l 292 180 l 589 201 l 596 26 l 40 0 z "},"m":{"ha":1068,"x_min":3,"x_max":999,"o":"m 530 267 l 800 945 l 983 950 l 999 26 l 781 24 l 778 525 l 558 -5 l 460 5 l 248 469 l 262 1 l 16 1 l 3 971 l 211 971 l 530 267 z "},"n":{"ha":912,"x_min":0,"x_max":840,"o":"m 248 589 l 261 0 l 0 0 l 0 972 l 197 972 l 631 354 l 602 962 l 825 971 l 840 26 l 657 12 l 248 589 z "},"o":{"ha":1082,"x_min":0,"x_max":1022,"o":"m 504 990 q 645 972 578 990 q 769 922 712 954 q 873 843 827 889 q 953 741 920 797 q 1004 621 986 686 q 1022 488 1022 557 q 1004 356 1022 419 q 953 237 986 292 q 873 137 920 182 q 769 60 827 92 q 645 11 712 28 q 504 -7 578 -7 q 369 11 434 -7 q 249 60 304 28 q 147 137 193 92 q 68 237 101 182 q 18 355 36 292 q 0 488 0 418 q 18 621 0 557 q 68 741 36 686 q 147 843 101 797 q 249 922 193 889 q 369 972 304 954 q 504 990 434 990 m 504 187 q 621 210 567 187 q 713 270 674 232 q 774 356 752 307 q 796 460 796 406 q 774 569 796 519 q 713 655 752 619 q 621 710 674 690 q 504 730 567 730 q 396 710 446 730 q 308 655 345 690 q 248 569 270 619 q 227 460 227 519 q 248 356 227 406 q 308 270 270 307 q 396 210 345 232 q 504 187 446 187 z "},"p":{"ha":824,"x_min":0,"x_max":757,"o":"m 757 704 q 756 646 757 674 q 749 593 755 618 q 729 542 743 567 q 690 492 715 517 q 634 446 667 465 q 563 416 601 428 q 485 398 526 404 q 407 388 444 391 q 336 385 369 385 q 279 385 302 385 l 279 14 l 26 0 l 0 970 l 265 983 q 320 983 290 983 q 385 980 350 983 q 460 971 420 977 q 545 956 500 966 q 628 922 589 945 q 695 864 667 898 q 741 790 724 831 q 757 704 757 749 m 271 522 q 302 521 279 522 q 355 520 326 519 q 418 526 385 521 q 476 546 450 532 q 518 586 503 560 q 530 652 534 611 q 508 716 527 691 q 454 755 488 742 q 373 772 420 769 q 265 771 325 776 l 271 522 z "},"q":{"ha":1084,"x_min":1,"x_max":1017,"o":"m 1017 488 q 989 329 1017 405 q 913 190 962 252 q 794 83 863 127 q 642 20 726 39 l 822 -86 l 710 -228 l 404 5 q 248 65 321 20 q 120 174 175 109 q 33 319 65 239 q 1 488 1 400 q 19 619 1 556 q 70 737 37 682 q 148 837 102 792 q 249 915 193 882 q 368 964 304 947 q 501 982 432 982 q 641 964 574 982 q 765 915 707 947 q 868 837 822 882 q 948 737 915 792 q 999 619 981 682 q 1017 488 1017 556 m 501 189 q 617 210 564 189 q 709 267 670 231 q 769 350 747 302 q 791 452 791 398 q 769 559 791 510 q 709 643 747 608 q 617 699 670 679 q 501 718 564 718 q 395 699 444 718 q 309 643 345 679 q 251 559 272 608 q 229 452 229 510 q 251 350 229 398 q 309 267 272 302 q 395 210 345 231 q 501 189 444 189 z "},"r":{"ha":833,"x_min":0,"x_max":760,"o":"m 688 489 q 638 450 666 467 q 579 421 610 433 q 517 402 549 410 q 457 392 486 395 l 714 132 l 582 14 l 271 367 l 278 14 l 26 0 l 0 965 l 265 979 q 384 976 314 979 q 543 953 453 972 q 621 920 583 944 q 687 863 658 897 q 736 788 717 829 q 758 701 755 746 q 759 645 760 671 q 751 593 758 618 q 729 542 744 567 q 688 489 714 516 m 529 636 q 505 701 524 675 q 452 740 486 726 q 372 757 418 754 q 265 755 325 760 l 265 503 q 299 500 275 503 q 354 499 323 498 q 417 505 385 499 q 476 525 450 510 q 517 566 502 540 q 529 636 532 593 z "},"s":{"ha":831,"x_min":1,"x_max":770,"o":"m 144 275 q 285 184 225 205 q 385 196 345 164 q 393 233 401 212 q 363 275 386 253 q 308 321 341 298 q 242 367 275 345 q 178 411 208 390 q 132 449 149 432 q 115 463 128 452 q 86 492 102 473 q 52 535 69 510 q 22 592 34 560 q 5 661 9 623 q 11 742 1 699 q 63 841 26 797 q 150 916 99 885 q 265 964 201 947 q 397 981 328 981 q 507 975 456 981 q 603 957 558 970 q 690 924 648 945 q 770 873 731 904 l 637 647 q 569 701 608 677 q 491 740 531 725 q 411 758 450 754 q 341 751 372 761 q 289 716 309 741 q 265 647 268 690 q 281 581 265 610 q 321 528 296 552 q 378 481 347 503 q 443 437 410 460 q 507 390 476 415 q 560 332 537 364 q 594 260 583 300 q 602 168 606 220 q 573 83 597 118 q 514 27 549 48 q 435 -2 479 6 q 346 -7 391 -10 q 291 1 318 -5 q 238 14 264 6 q 189 32 212 22 q 144 51 165 41 q 53 102 96 73 q 99 188 79 150 q 116 220 108 204 q 131 248 124 235 q 141 267 137 260 q 144 275 144 275 z "},"t":{"ha":928,"x_min":0,"x_max":861,"o":"m 541 764 l 553 9 l 302 0 l 289 755 l 7 742 l 0 947 l 854 974 l 861 777 l 541 764 z "},"u":{"ha":1038,"x_min":0,"x_max":966,"o":"m 0 972 l 300 972 q 298 698 300 819 q 300 485 296 577 q 315 330 303 393 q 352 226 326 266 q 422 170 378 186 q 534 157 466 153 q 646 187 603 160 q 712 263 688 214 q 743 380 735 311 q 752 536 751 449 q 749 726 753 623 q 746 947 746 829 q 763 947 746 947 q 804 947 779 947 q 857 947 828 947 q 909 947 885 947 q 950 947 934 947 q 966 947 966 947 q 966 758 966 840 q 965 614 966 676 q 962 507 964 553 q 958 424 961 461 q 951 356 956 387 q 942 293 947 326 q 896 175 931 230 q 805 80 860 121 q 677 16 749 39 q 522 -7 606 -7 q 376 6 441 -7 q 261 41 311 20 q 173 92 210 63 q 109 150 136 120 q 65 211 83 180 q 39 267 48 241 q 26 312 32 286 q 17 374 21 337 q 9 463 13 411 q 4 586 6 514 q 1 753 2 658 q 0 972 0 848 z "},"v":{"ha":1070,"x_min":-1,"x_max":1003,"o":"m 1003 921 l 604 -1 l 387 12 l -1 908 l 195 972 l 467 314 l 722 990 l 1003 921 z "},"w":{"ha":1333,"x_min":0,"x_max":1274,"o":"m 884 326 l 1044 965 l 1274 924 l 1028 9 l 812 33 l 671 574 l 468 -1 l 229 -1 l 0 942 l 269 974 l 400 389 l 581 974 l 724 962 l 884 326 z "},"x":{"ha":996,"x_min":8,"x_max":918,"o":"m 918 157 l 722 -4 l 450 311 l 172 5 l 8 172 l 306 486 l 20 803 l 211 974 l 476 663 l 717 939 l 851 814 l 591 519 l 918 157 l 918 157 z "},"y":{"ha":1023,"x_min":0,"x_max":954,"o":"m 954 864 l 632 475 l 659 5 l 416 -8 l 389 449 l 0 838 l 175 986 l 524 610 l 806 972 l 954 864 l 954 864 z "},"z":{"ha":828,"x_min":0,"x_max":686,"o":"m 345 175 l 635 171 l 627 4 l 66 22 l 66 160 l 439 745 l 0 745 l 0 974 l 686 964 l 686 782 l 345 175 l 345 175 z "},"{":{"ha":397,"x_min":1,"x_max":328,"o":"m 315 12 q 235 12 270 9 q 174 22 200 15 q 130 38 148 28 q 99 57 111 47 q 80 76 87 67 q 68 90 73 85 q 42 145 49 119 q 37 197 36 172 q 46 243 39 221 q 62 284 54 265 q 76 319 70 303 q 83 349 83 336 q 76 368 83 359 q 58 385 69 378 q 33 397 47 393 q 5 401 19 401 l 5 479 q 35 480 19 479 q 63 484 50 481 q 85 495 77 488 q 94 517 94 503 q 86 544 94 530 q 67 573 79 557 q 44 607 56 589 q 22 649 32 626 q 7 700 12 671 q 5 764 1 728 q 40 862 14 822 q 108 926 66 902 q 204 962 149 951 q 328 972 260 972 l 328 854 q 245 853 280 858 q 188 838 211 848 q 151 812 165 827 q 131 781 138 798 q 122 746 124 764 q 120 711 120 728 q 133 658 120 683 q 160 610 145 633 q 187 564 174 587 q 199 517 199 541 q 189 472 199 498 q 160 428 179 447 q 185 403 177 418 q 197 373 193 388 q 199 336 200 355 q 194 301 199 317 q 180 272 188 286 q 164 245 172 258 q 152 219 157 233 q 149 190 148 205 q 160 154 150 174 q 186 126 170 134 q 223 117 202 118 q 267 119 243 115 q 315 127 291 123 l 315 12 l 315 12 z "},"}":{"ha":397,"x_min":0,"x_max":327,"o":"m 14 12 l 14 127 q 61 119 38 123 q 105 117 85 115 q 142 126 126 118 q 168 154 159 134 q 179 190 178 174 q 176 219 180 205 q 164 245 172 233 q 148 272 156 258 q 135 301 140 286 q 129 336 129 317 q 132 373 128 355 q 143 403 135 388 q 168 428 151 418 q 139 472 149 447 q 129 517 129 498 q 141 564 129 541 q 169 610 154 587 q 196 658 183 633 q 208 711 208 683 q 206 746 208 728 q 197 781 204 764 q 177 812 191 798 q 140 838 163 827 q 83 853 117 848 q 0 854 49 858 l 0 972 q 123 962 68 972 q 220 926 179 951 q 288 862 262 902 q 323 764 314 822 q 322 700 327 728 q 307 649 317 671 q 284 607 297 626 q 261 573 272 589 q 242 544 250 557 q 235 517 235 530 q 243 495 235 503 q 265 484 252 488 q 294 480 278 481 q 323 479 309 479 l 323 401 q 295 397 309 401 q 270 385 281 393 q 252 368 259 378 q 245 349 245 359 q 252 319 245 336 q 267 284 258 303 q 282 243 275 265 q 291 197 290 221 q 286 145 293 172 q 260 90 279 119 q 240 67 254 82 q 199 38 227 52 q 126 15 171 24 q 14 12 81 7 z "},"~":{"ha":751,"x_min":-3,"x_max":686,"o":"m -3 460 q 17 486 4 469 q 48 520 31 502 q 89 557 66 538 q 137 592 112 576 q 189 617 162 607 q 244 627 216 627 q 304 615 280 627 q 346 588 329 604 q 376 551 363 571 q 400 515 389 532 q 426 487 412 498 q 460 476 440 476 q 502 491 481 476 q 538 523 522 505 q 572 570 556 543 l 686 465 q 665 441 679 456 q 634 410 652 427 q 596 378 616 394 q 554 348 575 361 q 511 327 532 335 q 471 319 490 319 q 416 329 439 319 q 376 352 393 338 q 345 381 359 366 q 318 411 332 397 q 290 434 304 425 q 254 443 275 443 q 225 438 239 443 q 199 425 211 433 q 176 406 186 416 q 157 385 165 396 q 121 328 136 359 l -3 460 z "}," ":{"ha":555,"x_min":0,"x_max":0,"o":""},"¡":{"ha":342,"x_min":0,"x_max":271,"o":"m 57 608 l 222 599 l 197 -32 l 0 -22 l 57 608 m 271 826 q 263 786 271 806 q 240 750 255 766 q 205 725 226 735 q 158 714 184 715 q 108 724 130 714 q 71 750 86 734 q 49 786 56 766 q 43 826 42 806 q 54 867 44 848 q 80 898 64 885 q 116 919 96 911 q 158 926 136 926 q 199 919 179 926 q 235 898 219 911 q 261 867 251 885 q 271 826 271 848 z "},"£":{"ha":607,"x_min":0,"x_max":533,"o":"m 533 186 l 533 40 l 0 40 l 0 170 q 43 176 18 170 q 91 198 68 182 q 130 237 114 213 q 146 298 146 262 q 145 316 146 304 q 144 341 145 328 q 139 370 142 355 q 129 396 135 384 l 17 396 l 17 509 l 113 509 q 91 604 101 557 q 81 686 81 650 q 103 777 81 735 q 161 848 125 818 q 244 896 197 879 q 339 913 290 913 q 424 898 388 913 q 484 865 460 882 q 533 817 513 843 l 453 734 q 429 751 443 744 q 398 763 416 758 q 355 768 380 768 q 294 755 319 768 q 255 724 270 742 q 233 686 239 705 q 227 654 227 667 q 229 634 227 648 q 237 600 232 620 q 247 557 241 581 q 258 509 252 533 l 387 509 l 387 396 l 290 396 q 300 370 296 384 q 305 341 304 355 q 307 316 307 328 q 307 298 307 304 q 300 240 307 262 q 283 205 292 218 q 258 186 272 191 l 533 186 z "},"¨":{"ha":318,"x_min":0,"x_max":323,"o":"m 72 921 q 47 924 60 920 q 26 937 35 928 q 9 957 16 945 q 1 985 3 969 q 5 1015 0 1002 q 19 1037 10 1027 q 40 1050 28 1046 q 64 1055 52 1055 q 89 1051 77 1056 q 109 1037 100 1046 q 122 1016 117 1028 q 127 991 127 1004 q 124 967 128 979 q 114 945 121 955 q 96 928 106 935 q 72 921 85 922 m 265 932 q 222 947 240 930 q 203 987 205 964 q 206 1012 202 1000 q 218 1032 210 1023 q 236 1045 226 1040 q 258 1051 246 1050 q 302 1036 284 1052 q 321 993 319 1019 q 307 950 323 968 q 265 932 291 933 z "},"©":{"ha":819,"x_min":1,"x_max":751,"o":"m 496 146 q 474 134 486 138 q 447 126 461 129 q 419 122 433 123 q 392 121 405 121 q 318 134 354 121 q 255 171 283 147 q 210 226 227 194 q 193 294 193 258 q 204 373 191 336 q 243 437 216 410 q 309 482 269 465 q 401 498 349 498 q 444 495 424 498 q 479 488 464 492 q 504 479 494 484 q 515 473 514 475 l 515 379 q 499 387 509 382 q 474 395 488 391 q 444 399 460 398 q 411 399 428 401 q 374 393 396 399 q 334 373 353 387 q 303 337 315 359 q 297 281 292 314 q 326 235 302 252 q 381 210 350 217 q 443 205 412 202 q 496 221 475 208 l 496 146 m 371 688 q 522 659 452 688 q 642 579 591 629 q 722 463 693 530 q 751 319 751 395 q 722 178 751 244 q 642 63 693 112 q 522 -15 591 14 q 371 -43 452 -43 q 227 -15 294 -43 q 109 63 159 14 q 30 178 59 112 q 1 319 1 244 q 30 463 1 395 q 109 579 59 530 q 227 659 159 629 q 371 688 294 688 m 370 17 q 495 41 437 17 q 594 104 552 64 q 659 196 635 144 q 682 307 682 249 q 659 424 682 371 q 594 516 635 477 q 495 575 552 554 q 370 596 437 596 q 254 575 308 596 q 160 516 200 554 q 97 424 120 477 q 74 307 74 371 q 97 196 74 249 q 160 104 120 144 q 254 41 200 64 q 370 17 308 17 z "},"®":{"ha":821,"x_min":3,"x_max":753,"o":"m 372 686 q 523 657 454 686 q 644 578 593 628 q 724 461 694 528 q 753 318 753 394 q 724 177 753 243 q 644 61 694 111 q 523 -16 593 12 q 372 -45 454 -45 q 228 -16 295 -45 q 111 61 161 12 q 32 177 60 111 q 3 318 3 243 q 32 461 3 394 q 111 578 60 528 q 228 657 161 628 q 372 686 295 686 m 371 16 q 496 39 439 16 q 595 103 553 63 q 660 195 637 142 q 684 306 684 248 q 660 423 684 370 q 595 514 637 476 q 496 573 553 552 q 371 595 439 595 q 255 573 309 595 q 161 514 201 552 q 98 423 121 476 q 75 306 75 370 q 98 195 75 248 q 161 103 121 142 q 255 39 201 63 q 371 16 309 16 m 525 302 q 480 275 507 284 q 428 262 453 266 l 536 154 l 481 104 l 351 252 l 353 104 l 249 98 l 237 501 l 349 509 q 398 507 370 509 q 465 497 427 506 q 498 483 482 493 q 526 459 513 473 q 545 428 538 445 q 554 392 553 410 q 555 368 555 379 q 552 346 555 357 q 542 325 549 336 q 525 302 536 314 m 458 364 q 427 408 454 397 q 349 414 399 418 l 349 309 q 363 308 353 309 q 386 307 374 307 q 412 309 399 307 q 437 317 426 311 q 454 335 448 323 q 458 364 460 346 z "},"±":{"ha":1157,"x_min":0,"x_max":0,"o":""},"´":{"ha":231,"x_min":0,"x_max":231,"o":"m 45 844 l 0 903 l 167 1043 l 231 954 l 45 844 z "},"¸":{"ha":211,"x_min":0,"x_max":212,"o":"m 0 -163 q 26 -165 7 -164 q 64 -163 45 -165 q 99 -154 84 -161 q 115 -132 115 -147 q 108 -114 116 -121 q 88 -102 100 -107 q 62 -93 76 -97 q 36 -83 47 -89 q 16 -70 24 -77 q 8 -49 7 -62 q 12 -28 7 -37 q 25 -15 17 -20 q 41 -5 33 -9 q 58 3 50 -1 l 135 3 q 111 -8 121 -2 q 95 -21 102 -14 q 87 -37 87 -28 q 96 -50 87 -45 q 119 -56 105 -54 q 148 -63 132 -59 q 178 -73 164 -66 q 201 -92 191 -80 q 211 -123 210 -104 q 197 -176 212 -152 q 154 -217 182 -200 q 87 -242 126 -234 q 1 -248 48 -251 l 0 -163 z "},"¿":{"ha":833,"x_min":2,"x_max":770,"o":"m 480 880 q 472 843 480 861 q 452 810 465 825 q 420 786 439 796 q 377 777 401 777 q 330 785 350 776 q 297 810 310 795 q 277 843 283 825 q 271 880 271 862 q 282 917 273 900 q 305 946 290 934 q 338 965 320 958 q 377 972 356 972 q 414 965 396 972 q 447 946 432 958 q 470 917 461 934 q 480 880 480 900 m 454 656 q 429 574 446 607 q 390 516 412 540 q 346 473 368 491 q 303 438 323 455 q 270 402 284 421 q 253 357 256 383 q 265 289 249 316 q 312 252 282 263 q 383 242 342 240 q 467 258 423 244 q 556 297 511 272 q 638 357 600 322 l 771 131 q 690 78 732 101 q 604 40 649 55 q 507 17 558 25 q 398 10 457 10 q 265 25 328 10 q 151 69 202 40 q 64 140 100 98 q 12 238 27 183 q 7 319 2 281 q 25 390 12 358 q 58 449 39 423 q 95 494 77 475 q 128 524 113 513 q 146 538 142 535 q 177 561 160 549 q 211 588 193 572 q 247 631 229 605 q 282 697 265 657 l 454 656 z "},"À":{"ha":986,"x_min":0,"x_max":920,"o":"m 631 277 l 329 277 l 236 0 l 0 65 l 355 972 l 551 960 l 920 79 l 736 12 l 631 277 m 578 395 l 460 671 l 368 395 l 578 395 m 312 1092 l 376 1181 l 543 1040 l 498 982 l 312 1092 z "},"Á":{"ha":986,"x_min":0,"x_max":920,"o":"m 631 277 l 329 277 l 236 0 l 0 65 l 355 972 l 551 960 l 920 79 l 736 12 l 631 277 m 578 395 l 460 671 l 368 395 l 578 395 m 412 983 l 368 1042 l 534 1182 l 598 1093 l 412 983 z "},"Â":{"ha":986,"x_min":0,"x_max":920,"o":"m 631 277 l 329 277 l 236 0 l 0 65 l 355 972 l 551 960 l 920 79 l 736 12 l 631 277 m 578 395 l 460 671 l 368 395 l 578 395 m 364 988 l 326 1023 l 458 1166 l 580 1023 l 532 987 l 452 1081 l 364 988 z "},"Ã":{"ha":986,"x_min":0,"x_max":920,"o":"m 631 277 l 329 277 l 236 0 l 0 65 l 355 972 l 551 960 l 920 79 l 736 12 l 631 277 m 578 395 l 460 671 l 368 395 l 578 395 m 286 1052 q 303 1073 291 1059 q 331 1100 315 1086 q 367 1123 347 1113 q 407 1133 387 1133 q 447 1122 433 1133 q 471 1097 461 1110 q 488 1072 480 1083 q 511 1060 496 1060 q 531 1067 522 1060 q 549 1082 541 1074 q 566 1105 557 1093 l 623 1056 q 604 1036 616 1048 q 577 1013 592 1024 q 547 992 562 1001 q 517 985 531 984 q 480 994 494 985 q 456 1014 467 1003 q 436 1035 446 1025 q 411 1044 426 1044 q 385 1036 396 1044 q 365 1016 373 1027 q 347 987 355 1004 l 286 1052 z "},"Ä":{"ha":986,"x_min":0,"x_max":920,"o":"m 631 277 l 329 277 l 236 0 l 0 65 l 355 972 l 551 960 l 920 79 l 736 12 l 631 277 m 578 395 l 460 671 l 368 395 l 578 395 m 357 989 q 333 992 345 988 q 311 1004 321 996 q 295 1025 302 1013 q 287 1053 288 1037 q 291 1082 286 1069 q 305 1104 296 1095 q 326 1118 314 1114 q 349 1123 337 1123 q 374 1119 363 1124 q 394 1105 386 1114 q 408 1084 403 1096 q 413 1059 412 1072 q 410 1035 414 1047 q 399 1013 406 1023 q 381 996 392 1003 q 357 989 370 989 m 551 1000 q 508 1015 526 998 q 488 1055 490 1031 q 492 1080 488 1068 q 504 1100 496 1091 q 522 1113 511 1108 q 544 1119 532 1118 q 587 1103 570 1120 q 606 1061 605 1087 q 592 1018 608 1036 q 551 1000 576 1001 z "},"Å":{"ha":986,"x_min":0,"x_max":920,"o":"m 631 277 l 329 277 l 236 0 l 0 65 l 355 972 l 551 960 l 920 79 l 736 12 l 631 277 m 578 395 l 460 671 l 368 395 l 578 395 m 442 1185 q 485 1177 465 1185 q 519 1155 505 1168 q 542 1122 534 1141 q 550 1082 550 1103 q 542 1043 550 1061 q 519 1011 534 1025 q 485 990 505 998 q 442 982 465 982 q 402 990 421 982 q 370 1011 384 998 q 347 1043 355 1025 q 339 1082 339 1061 q 347 1122 339 1103 q 370 1155 355 1141 q 402 1177 384 1168 q 442 1185 421 1185 m 442 1029 q 481 1043 466 1029 q 496 1076 496 1057 q 481 1111 496 1097 q 442 1124 466 1124 q 408 1111 422 1124 q 393 1076 393 1097 q 397 1058 393 1067 q 408 1043 401 1050 q 423 1033 414 1036 q 442 1029 432 1029 z "},"Æ":{"ha":1253,"x_min":-18,"x_max":1184,"o":"m 1184 970 l 1184 737 l 768 737 l 772 418 l 1016 418 l 1016 288 l 779 288 l 781 182 l 1116 196 l 1121 11 l 531 -1 l 527 271 l 339 271 l 201 -3 l -18 96 l 482 971 l 1184 970 m 526 403 l 523 654 l 389 403 l 526 403 z "},"Ç":{"ha":916,"x_min":0,"x_max":852,"o":"m 578 718 q 517 711 553 718 q 446 689 482 705 q 375 650 409 674 q 316 591 340 626 q 280 510 291 556 q 278 406 269 464 q 320 320 288 357 q 399 258 353 283 q 500 220 445 233 q 609 206 555 207 q 713 216 664 205 q 799 250 763 227 l 799 54 q 742 22 775 35 q 673 2 709 9 q 598 -8 636 -5 q 527 -11 561 -11 q 497 -10 512 -11 q 467 -8 482 -9 q 454 -19 460 -12 q 449 -33 449 -26 q 458 -45 449 -41 q 481 -52 467 -49 q 510 -58 494 -55 q 539 -69 526 -62 q 563 -88 553 -76 q 573 -119 572 -100 q 559 -172 574 -148 q 516 -213 544 -196 q 449 -238 488 -229 q 363 -243 410 -246 l 361 -158 q 388 -160 369 -159 q 426 -159 406 -161 q 461 -150 446 -157 q 477 -127 476 -143 q 469 -110 477 -117 q 449 -98 461 -102 q 424 -89 437 -93 q 398 -79 410 -85 q 378 -65 386 -73 q 370 -45 370 -58 q 373 -27 370 -35 q 382 -15 376 -20 q 394 -6 387 -9 q 409 1 401 -2 q 254 60 328 20 q 125 158 181 100 q 37 289 70 216 q 5 444 5 361 q 34 649 0 552 q 137 820 68 746 q 311 936 207 893 q 552 979 416 979 q 663 971 611 979 q 756 951 715 962 q 822 929 796 940 q 852 914 847 919 l 852 667 q 809 687 838 676 q 745 707 781 699 q 665 719 708 715 q 578 718 622 723 z "},"È":{"ha":862,"x_min":0,"x_max":787,"o":"m 250 739 l 254 419 l 551 419 l 551 289 l 260 289 l 262 183 l 703 197 l 708 12 l 12 0 l 0 971 l 787 971 l 787 739 l 250 739 m 304 1096 l 368 1185 l 534 1044 l 490 986 l 304 1096 z "},"É":{"ha":862,"x_min":0,"x_max":787,"o":"m 250 739 l 254 419 l 551 419 l 551 289 l 260 289 l 262 183 l 703 197 l 708 12 l 12 0 l 0 971 l 787 971 l 787 739 l 250 739 m 362 988 l 317 1046 l 484 1187 l 548 1098 l 362 988 z "},"Ê":{"ha":862,"x_min":0,"x_max":787,"o":"m 250 739 l 254 419 l 551 419 l 551 289 l 260 289 l 262 183 l 703 197 l 708 12 l 12 0 l 0 971 l 787 971 l 787 739 l 250 739 m 324 996 l 278 1030 l 435 1172 l 580 1030 l 523 994 l 427 1088 l 324 996 z "},"Ë":{"ha":862,"x_min":0,"x_max":787,"o":"m 250 739 l 254 419 l 551 419 l 551 289 l 260 289 l 262 183 l 703 197 l 708 12 l 12 0 l 0 971 l 787 971 l 787 739 l 250 739 m 313 991 q 288 994 300 990 q 267 1006 276 998 q 250 1027 257 1015 q 242 1055 243 1039 q 246 1084 241 1072 q 260 1106 251 1097 q 281 1120 269 1116 q 304 1125 292 1125 q 330 1121 318 1126 q 350 1107 341 1116 q 363 1086 358 1098 q 368 1061 368 1074 q 365 1037 369 1049 q 354 1015 361 1025 q 336 998 347 1005 q 313 991 326 991 m 506 1002 q 463 1017 481 1000 q 444 1057 446 1034 q 447 1082 443 1070 q 459 1102 451 1093 q 477 1115 467 1110 q 499 1121 487 1120 q 543 1105 525 1122 q 562 1063 560 1089 q 548 1020 564 1038 q 506 1002 532 1003 z "},"Ì":{"ha":397,"x_min":45,"x_max":351,"o":"m 311 -5 l 45 8 l 85 981 l 351 966 l 311 -5 m 102 1105 l 166 1194 l 333 1054 l 288 996 l 102 1105 z "},"Í":{"ha":397,"x_min":45,"x_max":351,"o":"m 311 -5 l 45 8 l 85 981 l 351 966 l 311 -5 m 163 1002 l 119 1061 l 286 1201 l 349 1112 l 163 1002 z "},"Î":{"ha":397,"x_min":45,"x_max":351,"o":"m 311 -5 l 45 8 l 85 981 l 351 966 l 311 -5 m 136 992 l 97 1027 l 229 1170 l 351 1027 l 304 991 l 223 1085 l 136 992 z "},"Ï":{"ha":397,"x_min":45,"x_max":371,"o":"m 311 -5 l 45 8 l 85 981 l 351 966 l 311 -5 m 120 1000 q 96 1004 108 1000 q 74 1016 83 1008 q 58 1036 64 1024 q 50 1064 51 1048 q 53 1094 48 1081 q 67 1116 58 1107 q 88 1130 77 1125 q 112 1135 100 1135 q 137 1130 125 1135 q 157 1116 149 1125 q 170 1096 165 1107 q 176 1071 175 1084 q 173 1046 176 1059 q 162 1024 169 1034 q 144 1008 155 1015 q 120 1000 133 1001 m 313 1011 q 271 1026 288 1010 q 251 1067 253 1043 q 254 1091 250 1080 q 266 1111 258 1103 q 284 1125 274 1120 q 307 1131 294 1130 q 350 1115 332 1131 q 369 1072 368 1099 q 355 1030 371 1047 q 313 1011 339 1013 z "},"Ð":{"ha":1105,"x_min":-1,"x_max":1043,"o":"m 1026 590 q 1031 423 1043 500 q 985 281 1019 345 q 895 168 950 218 q 771 83 840 118 q 621 28 702 48 q 454 5 541 9 q 288 -1 354 0 q 182 0 222 -1 q 110 5 136 1 l 104 389 l -1 389 l 0 538 l 102 536 l 96 956 q 183 964 137 960 q 272 970 229 967 q 353 974 315 972 q 415 975 390 975 q 515 971 458 975 q 635 955 573 968 q 760 917 698 942 q 876 849 823 892 q 969 743 930 806 q 1026 590 1009 680 m 335 189 q 521 197 439 182 q 659 247 603 212 q 743 337 715 282 q 766 467 771 393 q 747 550 764 514 q 706 612 731 586 q 647 655 680 638 q 579 682 614 672 q 506 696 543 692 q 435 700 469 700 q 372 696 401 699 q 322 688 342 692 l 326 530 l 439 529 l 436 389 l 329 389 l 335 189 z "},"Ñ":{"ha":912,"x_min":0,"x_max":840,"o":"m 248 589 l 261 0 l 0 0 l 0 972 l 197 972 l 631 354 l 602 962 l 825 971 l 840 26 l 657 12 l 248 589 m 220 1037 q 236 1058 224 1044 q 264 1085 248 1072 q 300 1108 281 1098 q 340 1118 320 1118 q 381 1107 367 1118 q 404 1082 395 1095 q 422 1057 414 1068 q 445 1045 430 1045 q 465 1052 455 1045 q 482 1067 475 1059 q 499 1090 491 1078 l 556 1041 q 538 1021 550 1034 q 511 998 526 1009 q 480 978 496 986 q 450 970 465 969 q 414 979 427 970 q 390 999 400 988 q 370 1020 380 1010 q 345 1029 359 1029 q 318 1021 330 1029 q 298 1001 307 1012 q 281 972 289 989 l 220 1037 z "},"Ò":{"ha":1082,"x_min":0,"x_max":1022,"o":"m 504 990 q 645 972 578 990 q 769 922 712 954 q 873 843 827 889 q 953 741 920 797 q 1004 621 986 686 q 1022 488 1022 557 q 1004 356 1022 419 q 953 237 986 292 q 873 137 920 182 q 769 60 827 92 q 645 11 712 28 q 504 -7 578 -7 q 369 11 434 -7 q 249 60 304 28 q 147 137 193 92 q 68 237 101 182 q 18 355 36 292 q 0 488 0 418 q 18 621 0 557 q 68 741 36 686 q 147 843 101 797 q 249 922 193 889 q 369 972 304 954 q 504 990 434 990 m 504 187 q 621 210 567 187 q 713 270 674 232 q 774 356 752 307 q 796 460 796 406 q 774 569 796 519 q 713 655 752 619 q 621 710 674 690 q 504 730 567 730 q 396 710 446 730 q 308 655 345 690 q 248 569 270 619 q 227 460 227 519 q 248 356 227 406 q 308 270 270 307 q 396 210 345 232 q 504 187 446 187 m 322 1112 l 386 1201 l 553 1061 l 508 1002 l 322 1112 z "},"Ó":{"ha":1082,"x_min":0,"x_max":1022,"o":"m 504 990 q 645 972 578 990 q 769 922 712 954 q 873 843 827 889 q 953 741 920 797 q 1004 621 986 686 q 1022 488 1022 557 q 1004 356 1022 419 q 953 237 986 292 q 873 137 920 182 q 769 60 827 92 q 645 11 712 28 q 504 -7 578 -7 q 369 11 434 -7 q 249 60 304 28 q 147 137 193 92 q 68 237 101 182 q 18 355 36 292 q 0 488 0 418 q 18 621 0 557 q 68 741 36 686 q 147 843 101 797 q 249 922 193 889 q 369 972 304 954 q 504 990 434 990 m 504 187 q 621 210 567 187 q 713 270 674 232 q 774 356 752 307 q 796 460 796 406 q 774 569 796 519 q 713 655 752 619 q 621 710 674 690 q 504 730 567 730 q 396 710 446 730 q 308 655 345 690 q 248 569 270 619 q 227 460 227 519 q 248 356 227 406 q 308 270 270 307 q 396 210 345 232 q 504 187 446 187 m 471 1012 l 426 1070 l 593 1211 l 656 1122 l 471 1012 z "},"Ô":{"ha":1082,"x_min":0,"x_max":1022,"o":"m 504 990 q 645 972 578 990 q 769 922 712 954 q 873 843 827 889 q 953 741 920 797 q 1004 621 986 686 q 1022 488 1022 557 q 1004 356 1022 419 q 953 237 986 292 q 873 137 920 182 q 769 60 827 92 q 645 11 712 28 q 504 -7 578 -7 q 369 11 434 -7 q 249 60 304 28 q 147 137 193 92 q 68 237 101 182 q 18 355 36 292 q 0 488 0 418 q 18 621 0 557 q 68 741 36 686 q 147 843 101 797 q 249 922 193 889 q 369 972 304 954 q 504 990 434 990 m 504 187 q 621 210 567 187 q 713 270 674 232 q 774 356 752 307 q 796 460 796 406 q 774 569 796 519 q 713 655 752 619 q 621 710 674 690 q 504 730 567 730 q 396 710 446 730 q 308 655 345 690 q 248 569 270 619 q 227 460 227 519 q 248 356 227 406 q 308 270 270 307 q 396 210 345 232 q 504 187 446 187 m 391 1002 l 345 1036 l 503 1178 l 649 1036 l 593 1001 l 496 1094 l 391 1002 z "},"Õ":{"ha":1082,"x_min":0,"x_max":1022,"o":"m 504 990 q 645 972 578 990 q 769 922 712 954 q 873 843 827 889 q 953 741 920 797 q 1004 621 986 686 q 1022 488 1022 557 q 1004 356 1022 419 q 953 237 986 292 q 873 137 920 182 q 769 60 827 92 q 645 11 712 28 q 504 -7 578 -7 q 369 11 434 -7 q 249 60 304 28 q 147 137 193 92 q 68 237 101 182 q 18 355 36 292 q 0 488 0 418 q 18 621 0 557 q 68 741 36 686 q 147 843 101 797 q 249 922 193 889 q 369 972 304 954 q 504 990 434 990 m 504 187 q 621 210 567 187 q 713 270 674 232 q 774 356 752 307 q 796 460 796 406 q 774 569 796 519 q 713 655 752 619 q 621 710 674 690 q 504 730 567 730 q 396 710 446 730 q 308 655 345 690 q 248 569 270 619 q 227 460 227 519 q 248 356 227 406 q 308 270 270 307 q 396 210 345 232 q 504 187 446 187 m 355 1076 q 371 1097 359 1083 q 399 1124 383 1111 q 435 1147 416 1137 q 475 1158 455 1158 q 516 1146 502 1158 q 539 1121 530 1135 q 557 1096 549 1107 q 580 1084 565 1084 q 600 1091 590 1084 q 617 1107 610 1098 q 634 1130 626 1117 l 691 1080 q 673 1061 685 1073 q 646 1037 661 1048 q 615 1017 631 1025 q 585 1009 600 1008 q 549 1018 562 1009 q 525 1039 535 1027 q 505 1059 515 1050 q 479 1069 494 1069 q 453 1060 465 1069 q 433 1040 441 1051 q 416 1012 424 1028 l 355 1076 z "},"Ö":{"ha":1082,"x_min":0,"x_max":1022,"o":"m 504 990 q 645 972 578 990 q 769 922 712 954 q 873 843 827 889 q 953 741 920 797 q 1004 621 986 686 q 1022 488 1022 557 q 1004 356 1022 419 q 953 237 986 292 q 873 137 920 182 q 769 60 827 92 q 645 11 712 28 q 504 -7 578 -7 q 369 11 434 -7 q 249 60 304 28 q 147 137 193 92 q 68 237 101 182 q 18 355 36 292 q 0 488 0 418 q 18 621 0 557 q 68 741 36 686 q 147 843 101 797 q 249 922 193 889 q 369 972 304 954 q 504 990 434 990 m 504 187 q 621 210 567 187 q 713 270 674 232 q 774 356 752 307 q 796 460 796 406 q 774 569 796 519 q 713 655 752 619 q 621 710 674 690 q 504 730 567 730 q 396 710 446 730 q 308 655 345 690 q 248 569 270 619 q 227 460 227 519 q 248 356 227 406 q 308 270 270 307 q 396 210 345 232 q 504 187 446 187 m 401 995 q 376 998 389 994 q 355 1010 364 1002 q 338 1031 345 1019 q 330 1059 332 1043 q 334 1088 329 1076 q 348 1111 339 1101 q 369 1124 357 1120 q 393 1129 380 1129 q 418 1125 406 1130 q 438 1111 429 1120 q 451 1090 446 1102 q 456 1065 456 1078 q 453 1041 457 1053 q 443 1019 450 1029 q 425 1002 435 1009 q 401 995 414 996 m 594 1006 q 551 1021 569 1004 q 532 1061 534 1038 q 535 1086 531 1074 q 547 1106 539 1097 q 565 1119 555 1114 q 587 1125 575 1124 q 631 1109 613 1126 q 650 1067 648 1093 q 636 1024 652 1042 q 594 1006 620 1007 z "},"×":{"ha":659,"x_min":1,"x_max":622,"o":"m 488 151 l 302 366 l 113 157 l 1 271 l 204 486 l 9 702 l 139 819 l 320 606 l 484 795 l 576 709 l 399 509 l 622 261 l 488 151 z "},"Ø":{"ha":1082,"x_min":1,"x_max":1023,"o":"m 922 798 q 997 657 970 734 q 1023 496 1023 581 q 1005 364 1023 427 q 955 245 987 300 q 875 145 922 191 q 771 68 828 100 q 646 19 713 37 q 505 1 579 1 q 373 18 436 1 q 254 66 309 35 l 207 16 l 58 140 l 106 192 q 29 332 56 256 q 1 496 1 409 q 19 629 1 565 q 70 750 37 694 q 148 851 102 806 q 250 930 194 897 q 371 981 306 963 q 505 999 435 999 q 654 979 584 999 q 785 921 725 959 l 833 974 l 962 840 l 922 798 m 228 468 q 235 408 228 437 q 256 353 242 378 l 603 725 q 505 739 557 739 q 397 719 448 739 q 309 664 347 699 q 250 578 271 628 q 228 468 228 528 m 505 196 q 622 218 568 196 q 714 278 675 240 q 775 365 753 315 q 798 468 798 414 q 786 547 798 510 q 755 615 775 584 l 393 220 q 505 196 446 196 z "},"Ù":{"ha":1036,"x_min":0,"x_max":966,"o":"m 0 972 l 300 972 q 298 698 300 819 q 300 485 296 577 q 315 330 303 393 q 352 226 326 266 q 422 170 378 186 q 534 157 466 153 q 646 187 603 160 q 712 263 688 214 q 743 380 735 311 q 752 536 751 449 q 749 726 753 623 q 746 947 746 829 q 763 947 746 947 q 804 947 779 947 q 857 947 828 947 q 909 947 885 947 q 950 947 934 947 q 966 947 966 947 q 966 758 966 840 q 965 614 966 676 q 962 507 964 553 q 958 424 961 461 q 951 356 956 387 q 942 293 947 326 q 896 175 931 230 q 805 80 860 121 q 677 16 749 39 q 522 -7 606 -7 q 376 6 441 -7 q 261 41 311 20 q 173 92 210 63 q 109 150 136 120 q 65 211 83 180 q 39 267 48 241 q 26 312 32 286 q 17 374 21 337 q 9 463 13 411 q 4 586 6 514 q 1 753 2 658 q 0 972 0 848 m 285 1080 l 349 1169 l 515 1029 l 471 970 l 285 1080 z "},"Ú":{"ha":1036,"x_min":0,"x_max":966,"o":"m 0 972 l 300 972 q 298 698 300 819 q 300 485 296 577 q 315 330 303 393 q 352 226 326 266 q 422 170 378 186 q 534 157 466 153 q 646 187 603 160 q 712 263 688 214 q 743 380 735 311 q 752 536 751 449 q 749 726 753 623 q 746 947 746 829 q 763 947 746 947 q 804 947 779 947 q 857 947 828 947 q 909 947 885 947 q 950 947 934 947 q 966 947 966 947 q 966 758 966 840 q 965 614 966 676 q 962 507 964 553 q 958 424 961 461 q 951 356 956 387 q 942 293 947 326 q 896 175 931 230 q 805 80 860 121 q 677 16 749 39 q 522 -7 606 -7 q 376 6 441 -7 q 261 41 311 20 q 173 92 210 63 q 109 150 136 120 q 65 211 83 180 q 39 267 48 241 q 26 312 32 286 q 17 374 21 337 q 9 463 13 411 q 4 586 6 514 q 1 753 2 658 q 0 972 0 848 m 541 972 l 496 1031 l 663 1171 l 727 1082 l 541 972 z "},"Û":{"ha":1036,"x_min":0,"x_max":966,"o":"m 0 972 l 300 972 q 298 698 300 819 q 300 485 296 577 q 315 330 303 393 q 352 226 326 266 q 422 170 378 186 q 534 157 466 153 q 646 187 603 160 q 712 263 688 214 q 743 380 735 311 q 752 536 751 449 q 749 726 753 623 q 746 947 746 829 q 763 947 746 947 q 804 947 779 947 q 857 947 828 947 q 909 947 885 947 q 950 947 934 947 q 966 947 966 947 q 966 758 966 840 q 965 614 966 676 q 962 507 964 553 q 958 424 961 461 q 951 356 956 387 q 942 293 947 326 q 896 175 931 230 q 805 80 860 121 q 677 16 749 39 q 522 -7 606 -7 q 376 6 441 -7 q 261 41 311 20 q 173 92 210 63 q 109 150 136 120 q 65 211 83 180 q 39 267 48 241 q 26 312 32 286 q 17 374 21 337 q 9 463 13 411 q 4 586 6 514 q 1 753 2 658 q 0 972 0 848 m 450 977 l 407 1012 l 555 1158 l 692 1012 l 639 975 l 548 1071 l 450 977 z "},"Ü":{"ha":1036,"x_min":0,"x_max":966,"o":"m 0 972 l 300 972 q 298 698 300 819 q 300 485 296 577 q 315 330 303 393 q 352 226 326 266 q 422 170 378 186 q 534 157 466 153 q 646 187 603 160 q 712 263 688 214 q 743 380 735 311 q 752 536 751 449 q 749 726 753 623 q 746 947 746 829 q 763 947 746 947 q 804 947 779 947 q 857 947 828 947 q 909 947 885 947 q 950 947 934 947 q 966 947 966 947 q 966 758 966 840 q 965 614 966 676 q 962 507 964 553 q 958 424 961 461 q 951 356 956 387 q 942 293 947 326 q 896 175 931 230 q 805 80 860 121 q 677 16 749 39 q 522 -7 606 -7 q 376 6 441 -7 q 261 41 311 20 q 173 92 210 63 q 109 150 136 120 q 65 211 83 180 q 39 267 48 241 q 26 312 32 286 q 17 374 21 337 q 9 463 13 411 q 4 586 6 514 q 1 753 2 658 q 0 972 0 848 m 439 975 q 415 978 427 974 q 393 990 403 982 q 377 1010 384 998 q 369 1038 370 1023 q 373 1068 368 1055 q 387 1090 378 1081 q 408 1104 396 1099 q 431 1109 419 1109 q 456 1104 445 1109 q 476 1090 468 1099 q 490 1070 485 1082 q 495 1045 494 1058 q 492 1021 496 1033 q 481 999 488 1008 q 463 982 474 989 q 439 975 452 975 m 633 985 q 590 1001 608 984 q 570 1041 572 1017 q 574 1065 570 1054 q 586 1085 578 1077 q 604 1099 593 1094 q 626 1105 614 1104 q 669 1089 652 1105 q 688 1046 687 1073 q 674 1004 690 1021 q 633 985 659 987 z "},"Ý":{"ha":1024,"x_min":0,"x_max":954,"o":"m 632 475 l 659 5 l 416 -8 l 389 449 l 0 838 l 175 986 l 524 610 l 806 972 l 954 864 l 632 475 m 516 972 l 471 1031 l 638 1171 l 702 1082 l 516 972 z "},"Þ":{"ha":772,"x_min":0,"x_max":708,"o":"m 705 518 q 704 461 708 495 q 684 390 700 427 q 638 316 669 353 q 559 251 608 279 q 438 205 509 222 q 268 191 366 189 l 275 -7 l 26 -17 l 0 985 l 221 993 l 228 789 q 284 795 251 793 q 355 797 317 798 q 430 790 392 795 q 503 772 469 785 q 578 732 543 758 q 641 671 614 705 q 684 598 667 637 q 705 518 701 559 m 256 343 q 284 342 264 343 q 329 343 304 342 q 381 352 354 345 q 429 372 408 358 q 462 411 450 387 q 470 472 474 435 q 404 559 463 538 q 243 567 346 581 l 256 343 z "},"ß":{"ha":861,"x_min":3,"x_max":827,"o":"m 397 1011 q 537 989 478 1011 q 634 932 595 967 q 693 856 673 898 q 720 775 713 814 q 721 730 722 759 q 704 668 719 701 q 655 601 688 635 q 561 541 622 567 q 584 539 564 541 q 631 530 604 538 q 690 507 659 523 q 750 463 722 492 q 799 389 779 433 q 825 279 820 344 q 822 218 827 252 q 805 150 817 184 q 773 84 793 115 q 726 33 753 54 q 680 6 704 17 q 628 -12 656 -5 q 564 -22 599 -19 q 485 -25 529 -25 l 397 -25 l 397 151 l 442 151 q 492 154 465 151 q 545 169 520 157 q 587 203 570 180 q 606 266 604 226 q 594 337 606 307 q 562 387 582 367 q 514 419 542 407 q 456 437 487 431 q 391 445 425 444 q 325 447 357 447 l 325 583 l 354 583 q 408 589 376 583 q 467 613 439 594 q 514 667 496 631 q 530 762 533 703 q 512 819 526 795 q 476 857 497 842 q 431 877 456 871 q 383 880 407 882 q 344 870 366 878 q 303 845 322 863 q 272 798 285 828 q 260 721 260 768 l 260 3 l 3 3 l 3 721 q 8 776 3 745 q 30 839 14 807 q 74 902 46 871 q 145 957 102 933 q 251 996 189 981 q 397 1011 313 1011 z "},"à":{"ha":986,"x_min":0,"x_max":920,"o":"m 631 277 l 329 277 l 236 0 l 0 65 l 355 972 l 551 960 l 920 79 l 736 12 l 631 277 m 578 395 l 460 671 l 368 395 l 578 395 m 286 1112 l 350 1201 l 517 1061 l 472 1002 l 286 1112 z "},"á":{"ha":986,"x_min":0,"x_max":920,"o":"m 631 277 l 329 277 l 236 0 l 0 65 l 355 972 l 551 960 l 920 79 l 736 12 l 631 277 m 578 395 l 460 671 l 368 395 l 578 395 m 422 989 l 378 1047 l 545 1187 l 608 1099 l 422 989 z "},"â":{"ha":986,"x_min":0,"x_max":920,"o":"m 631 277 l 329 277 l 236 0 l 0 65 l 355 972 l 551 960 l 920 79 l 736 12 l 631 277 m 578 395 l 460 671 l 368 395 l 578 395 m 374 983 l 335 1018 l 467 1161 l 589 1018 l 542 982 l 461 1076 l 374 983 z "},"ã":{"ha":986,"x_min":0,"x_max":920,"o":"m 631 277 l 329 277 l 236 0 l 0 65 l 355 972 l 551 960 l 920 79 l 736 12 l 631 277 m 578 395 l 460 671 l 368 395 l 578 395 m 297 1052 q 314 1073 302 1059 q 342 1100 326 1086 q 378 1123 358 1113 q 418 1133 397 1133 q 458 1122 444 1133 q 481 1097 472 1110 q 499 1072 491 1083 q 522 1060 507 1060 q 542 1067 532 1060 q 559 1082 552 1074 q 576 1105 568 1093 l 633 1056 q 615 1036 627 1048 q 588 1013 603 1024 q 557 992 573 1001 q 528 985 542 984 q 491 994 505 985 q 467 1014 477 1003 q 447 1035 457 1025 q 422 1044 437 1044 q 395 1036 407 1044 q 376 1016 384 1027 q 358 987 366 1004 l 297 1052 z "},"ä":{"ha":986,"x_min":0,"x_max":920,"o":"m 631 277 l 329 277 l 236 0 l 0 65 l 355 972 l 551 960 l 920 79 l 736 12 l 631 277 m 578 395 l 460 671 l 368 395 l 578 395 m 355 987 q 331 991 343 987 q 309 1003 319 995 q 293 1023 300 1011 q 285 1051 286 1036 q 289 1081 283 1068 q 303 1103 294 1094 q 323 1117 312 1112 q 347 1122 335 1122 q 372 1117 361 1122 q 392 1103 384 1112 q 406 1083 401 1095 q 411 1058 410 1071 q 408 1034 412 1046 q 397 1011 404 1021 q 379 995 390 1002 q 355 987 368 988 m 549 998 q 506 1014 524 997 q 486 1054 488 1030 q 490 1078 486 1067 q 502 1098 494 1090 q 519 1112 509 1107 q 542 1118 530 1117 q 585 1102 568 1118 q 604 1059 603 1086 q 590 1017 606 1034 q 549 998 574 1000 z "},"å":{"ha":986,"x_min":0,"x_max":920,"o":"m 631 277 l 329 277 l 236 0 l 0 65 l 355 972 l 551 960 l 920 79 l 736 12 l 631 277 m 578 395 l 460 671 l 368 395 l 578 395 m 449 1174 q 492 1166 472 1174 q 526 1144 511 1158 q 549 1111 541 1130 q 557 1071 557 1092 q 549 1032 557 1050 q 526 1000 541 1014 q 492 979 511 987 q 449 971 472 971 q 409 979 428 971 q 376 1000 391 987 q 354 1032 362 1014 q 346 1071 346 1050 q 354 1111 346 1092 q 376 1144 362 1130 q 409 1166 391 1158 q 449 1174 428 1174 m 449 1018 q 488 1032 473 1018 q 503 1065 503 1046 q 488 1100 503 1086 q 449 1113 473 1113 q 415 1100 429 1113 q 400 1065 400 1086 q 404 1047 400 1056 q 415 1032 408 1039 q 430 1022 421 1025 q 449 1018 439 1018 z "},"æ":{"ha":1253,"x_min":-18,"x_max":1184,"o":"m 1184 970 l 1184 737 l 768 737 l 772 418 l 1016 418 l 1016 288 l 779 288 l 781 182 l 1116 196 l 1121 11 l 531 -1 l 527 271 l 339 271 l 201 -3 l -18 96 l 482 971 l 1184 970 m 389 403 l 526 403 l 523 654 l 389 403 z "},"ç":{"ha":918,"x_min":0,"x_max":852,"o":"m 454 -19 q 449 -29 449 -26 l 449 -37 q 458 -45 449 -41 q 481 -52 467 -49 q 510 -58 494 -55 q 540 -68 526 -62 q 563 -87 553 -76 q 573 -109 572 -100 l 573 -119 l 574 -134 q 559 -172 574 -148 q 516 -212 544 -196 q 449 -237 488 -229 q 387 -244 410 -246 l 363 -243 l 361 -158 q 388 -160 369 -159 q 426 -159 406 -161 q 461 -150 446 -157 q 477 -135 476 -143 l 477 -122 q 469 -109 477 -117 q 450 -98 461 -102 q 424 -89 437 -93 q 398 -79 410 -85 q 378 -65 386 -73 q 370 -45 370 -58 q 373 -27 370 -35 q 382 -15 376 -20 q 395 -5 387 -9 q 404 -1 399 -3 l 463 -12 q 454 -19 458 -14 m 407 1 q 409 1 408 1 q 254 60 328 20 q 125 158 181 100 q 37 289 70 216 q 5 444 5 361 q 34 649 0 552 q 137 820 68 746 q 311 936 207 893 q 552 979 416 979 q 663 971 611 979 q 756 951 715 962 q 822 929 796 940 q 852 914 847 919 l 852 667 q 809 687 838 676 q 745 707 781 699 q 665 719 708 715 q 578 718 622 723 q 517 711 553 718 q 446 689 482 705 q 375 650 409 674 q 316 591 340 626 q 280 510 291 556 q 278 406 269 464 q 320 320 288 357 q 399 258 353 283 q 500 220 445 233 q 609 206 555 207 q 713 216 664 205 q 799 250 763 227 l 799 54 q 742 22 775 35 q 673 2 709 9 q 598 -8 636 -5 q 544 -11 561 -11 l 519 -11 q 505 -10 512 -11 l 496 -10 l 489 -9 q 467 -8 481 -9 q 463 -12 465 -9 l 404 -1 q 407 1 406 0 z "},"è":{"ha":861,"x_min":0,"x_max":787,"o":"m 787 739 l 250 739 l 254 419 l 551 419 l 551 289 l 260 289 l 262 183 l 703 197 l 708 12 l 12 0 l 0 971 l 787 971 l 787 739 l 787 739 m 252 1095 l 315 1183 l 482 1043 l 437 985 l 252 1095 z "},"é":{"ha":861,"x_min":0,"x_max":787,"o":"m 787 739 l 250 739 l 254 419 l 551 419 l 551 289 l 260 289 l 262 183 l 703 197 l 708 12 l 12 0 l 0 971 l 787 971 l 787 739 l 787 739 m 401 982 l 357 1040 l 524 1181 l 587 1092 l 401 982 z "},"ê":{"ha":861,"x_min":0,"x_max":787,"o":"m 787 739 l 250 739 l 254 419 l 551 419 l 551 289 l 260 289 l 262 183 l 703 197 l 708 12 l 12 0 l 0 971 l 787 971 l 787 739 l 787 739 m 258 994 l 212 1028 l 368 1167 l 512 1028 l 456 993 l 361 1084 l 258 994 z "},"ë":{"ha":861,"x_min":0,"x_max":787,"o":"m 787 739 l 250 739 l 254 419 l 551 419 l 551 289 l 260 289 l 262 183 l 703 197 l 708 12 l 12 0 l 0 971 l 787 971 l 787 739 l 787 739 m 325 987 q 300 991 313 987 q 279 1003 288 995 q 262 1023 269 1011 q 254 1051 256 1036 q 258 1081 253 1068 q 272 1103 263 1094 q 293 1117 281 1112 q 317 1122 304 1122 q 342 1117 330 1122 q 362 1103 353 1112 q 375 1083 370 1095 q 380 1058 380 1071 q 377 1034 381 1046 q 367 1011 374 1021 q 349 995 359 1002 q 325 987 338 988 m 518 998 q 475 1014 493 997 q 456 1054 458 1030 q 459 1078 455 1067 q 471 1098 463 1090 q 489 1112 479 1107 q 511 1118 499 1117 q 555 1102 537 1118 q 574 1059 572 1086 q 560 1017 576 1034 q 518 998 544 1000 z "},"ì":{"ha":458,"x_min":45,"x_max":351,"o":"m 311 -5 l 45 8 l 85 981 l 351 966 l 311 -5 l 311 -5 m 46 1101 l 110 1190 l 277 1050 l 232 991 l 46 1101 z "},"í":{"ha":458,"x_min":45,"x_max":408,"o":"m 311 -5 l 45 8 l 85 981 l 351 966 l 311 -5 l 311 -5 m 222 1001 l 178 1059 l 345 1200 l 408 1111 l 222 1001 z "},"î":{"ha":458,"x_min":45,"x_max":351,"o":"m 311 -5 l 45 8 l 85 981 l 351 966 l 311 -5 l 311 -5 m 123 1010 l 85 1044 l 217 1187 l 339 1044 l 292 1008 l 211 1103 l 123 1010 z "},"ï":{"ha":458,"x_min":45,"x_max":378,"o":"m 311 -5 l 45 8 l 85 981 l 351 966 l 311 -5 l 311 -5 m 127 993 q 103 996 115 992 q 81 1008 91 1000 q 65 1029 72 1017 q 57 1057 58 1041 q 61 1086 56 1074 q 75 1108 66 1099 q 96 1122 84 1118 q 119 1127 107 1127 q 144 1123 133 1128 q 164 1109 156 1118 q 178 1088 173 1100 q 183 1063 182 1076 q 180 1039 184 1051 q 169 1017 176 1027 q 151 1000 162 1007 q 127 993 140 994 m 321 1004 q 278 1019 296 1002 q 258 1059 260 1036 q 262 1084 258 1072 q 274 1104 266 1095 q 292 1117 281 1112 q 314 1123 302 1122 q 357 1107 340 1124 q 376 1065 375 1091 q 362 1022 378 1040 q 321 1004 347 1005 z "},"ð":{"ha":1105,"x_min":-1,"x_max":1043,"o":"m 1026 590 q 1031 423 1043 500 q 985 281 1019 345 q 895 168 950 218 q 771 83 840 118 q 621 28 702 48 q 454 5 541 9 q 288 -1 354 0 q 182 0 222 -1 q 110 5 136 1 l 104 389 l -1 389 l 0 538 l 102 536 l 96 956 q 183 964 137 960 q 272 970 229 967 q 353 974 315 972 q 415 975 390 975 q 515 971 458 975 q 635 955 573 968 q 760 917 698 942 q 876 849 823 892 q 969 743 930 806 q 1026 590 1009 680 m 335 189 q 521 197 439 182 q 659 247 603 212 q 743 337 715 282 q 766 467 771 393 q 747 550 764 514 q 706 612 731 586 q 647 655 680 638 q 579 682 614 672 q 506 696 543 692 q 435 700 469 700 q 372 696 401 699 q 322 688 342 692 l 326 530 l 439 529 l 436 389 l 329 389 l 335 189 z "},"ñ":{"ha":909,"x_min":0,"x_max":840,"o":"m 248 589 l 261 0 l 0 0 l 0 972 l 197 972 l 631 354 l 602 962 l 825 971 l 840 26 l 657 12 l 248 589 m 214 1059 q 234 1084 219 1068 q 267 1117 248 1101 q 311 1145 287 1133 q 359 1157 334 1157 q 407 1143 391 1157 q 435 1113 424 1130 q 457 1083 447 1097 q 484 1069 466 1069 q 508 1077 497 1069 q 529 1096 520 1085 q 550 1124 540 1108 l 618 1064 q 596 1041 611 1055 q 563 1012 581 1026 q 527 988 546 998 q 491 979 508 978 q 447 990 463 979 q 418 1014 431 1001 q 394 1039 406 1028 q 364 1050 382 1050 q 332 1040 346 1050 q 308 1016 318 1029 q 287 982 297 1001 l 214 1059 z "},"ò":{"ha":1082,"x_min":0,"x_max":1022,"o":"m 504 990 q 645 972 578 990 q 769 922 712 954 q 873 843 827 889 q 953 741 920 797 q 1004 621 986 686 q 1022 488 1022 557 q 1004 356 1022 419 q 953 237 986 292 q 873 137 920 182 q 769 60 827 92 q 645 11 712 28 q 504 -7 578 -7 q 369 11 434 -7 q 249 60 304 28 q 147 137 193 92 q 68 237 101 182 q 18 355 36 292 q 0 488 0 418 q 18 621 0 557 q 68 741 36 686 q 147 843 101 797 q 249 922 193 889 q 369 972 304 954 q 504 990 434 990 m 504 187 q 621 210 567 187 q 713 270 674 232 q 774 356 752 307 q 796 460 796 406 q 774 569 796 519 q 713 655 752 619 q 621 710 674 690 q 504 730 567 730 q 396 710 446 730 q 308 655 345 690 q 248 569 270 619 q 227 460 227 519 q 248 356 227 406 q 308 270 270 307 q 396 210 345 232 q 504 187 446 187 m 265 1125 l 329 1214 l 496 1074 l 451 1015 l 265 1125 z "},"ó":{"ha":1082,"x_min":0,"x_max":1022,"o":"m 504 990 q 645 972 578 990 q 769 922 712 954 q 873 843 827 889 q 953 741 920 797 q 1004 621 986 686 q 1022 488 1022 557 q 1004 356 1022 419 q 953 237 986 292 q 873 137 920 182 q 769 60 827 92 q 645 11 712 28 q 504 -7 578 -7 q 369 11 434 -7 q 249 60 304 28 q 147 137 193 92 q 68 237 101 182 q 18 355 36 292 q 0 488 0 418 q 18 621 0 557 q 68 741 36 686 q 147 843 101 797 q 249 922 193 889 q 369 972 304 954 q 504 990 434 990 m 504 187 q 621 210 567 187 q 713 270 674 232 q 774 356 752 307 q 796 460 796 406 q 774 569 796 519 q 713 655 752 619 q 621 710 674 690 q 504 730 567 730 q 396 710 446 730 q 308 655 345 690 q 248 569 270 619 q 227 460 227 519 q 248 356 227 406 q 308 270 270 307 q 396 210 345 232 q 504 187 446 187 m 541 1008 l 496 1067 l 663 1207 l 726 1118 l 541 1008 z "},"ô":{"ha":1082,"x_min":0,"x_max":1022,"o":"m 504 990 q 645 972 578 990 q 769 922 712 954 q 873 843 827 889 q 953 741 920 797 q 1004 621 986 686 q 1022 488 1022 557 q 1004 356 1022 419 q 953 237 986 292 q 873 137 920 182 q 769 60 827 92 q 645 11 712 28 q 504 -7 578 -7 q 369 11 434 -7 q 249 60 304 28 q 147 137 193 92 q 68 237 101 182 q 18 355 36 292 q 0 488 0 418 q 18 621 0 557 q 68 741 36 686 q 147 843 101 797 q 249 922 193 889 q 369 972 304 954 q 504 990 434 990 m 504 187 q 621 210 567 187 q 713 270 674 232 q 774 356 752 307 q 796 460 796 406 q 774 569 796 519 q 713 655 752 619 q 621 710 674 690 q 504 730 567 730 q 396 710 446 730 q 308 655 345 690 q 248 569 270 619 q 227 460 227 519 q 248 356 227 406 q 308 270 270 307 q 396 210 345 232 q 504 187 446 187 m 410 1007 l 371 1042 l 503 1185 l 625 1042 l 578 1006 l 497 1100 l 410 1007 z "},"õ":{"ha":1082,"x_min":0,"x_max":1022,"o":"m 504 990 q 645 972 578 990 q 769 922 712 954 q 873 843 827 889 q 953 741 920 797 q 1004 621 986 686 q 1022 488 1022 557 q 1004 356 1022 419 q 953 237 986 292 q 873 137 920 182 q 769 60 827 92 q 645 11 712 28 q 504 -7 578 -7 q 369 11 434 -7 q 249 60 304 28 q 147 137 193 92 q 68 237 101 182 q 18 355 36 292 q 0 488 0 418 q 18 621 0 557 q 68 741 36 686 q 147 843 101 797 q 249 922 193 889 q 369 972 304 954 q 504 990 434 990 m 504 187 q 621 210 567 187 q 713 270 674 232 q 774 356 752 307 q 796 460 796 406 q 774 569 796 519 q 713 655 752 619 q 621 710 674 690 q 504 730 567 730 q 396 710 446 730 q 308 655 345 690 q 248 569 270 619 q 227 460 227 519 q 248 356 227 406 q 308 270 270 307 q 396 210 345 232 q 504 187 446 187 m 357 1076 q 373 1096 361 1082 q 401 1123 385 1110 q 437 1147 418 1137 q 477 1157 457 1157 q 518 1145 504 1157 q 541 1120 532 1134 q 559 1095 551 1107 q 582 1084 567 1084 q 602 1090 592 1084 q 619 1106 612 1097 q 636 1129 628 1116 l 693 1080 q 675 1060 687 1072 q 648 1036 663 1048 q 617 1016 633 1025 q 587 1008 602 1008 q 551 1018 564 1008 q 527 1038 537 1027 q 507 1059 517 1049 q 481 1068 496 1068 q 455 1059 467 1068 q 435 1040 444 1050 q 418 1011 426 1027 l 357 1076 z "},"ö":{"ha":1082,"x_min":0,"x_max":1022,"o":"m 504 990 q 645 972 578 990 q 769 922 712 954 q 873 843 827 889 q 953 741 920 797 q 1004 621 986 686 q 1022 488 1022 557 q 1004 356 1022 419 q 953 237 986 292 q 873 137 920 182 q 769 60 827 92 q 645 11 712 28 q 504 -7 578 -7 q 369 11 434 -7 q 249 60 304 28 q 147 137 193 92 q 68 237 101 182 q 18 355 36 292 q 0 488 0 418 q 18 621 0 557 q 68 741 36 686 q 147 843 101 797 q 249 922 193 889 q 369 972 304 954 q 504 990 434 990 m 504 187 q 621 210 567 187 q 713 270 674 232 q 774 356 752 307 q 796 460 796 406 q 774 569 796 519 q 713 655 752 619 q 621 710 674 690 q 504 730 567 730 q 396 710 446 730 q 308 655 345 690 q 248 569 270 619 q 227 460 227 519 q 248 356 227 406 q 308 270 270 307 q 396 210 345 232 q 504 187 446 187 m 379 995 q 355 998 367 994 q 333 1010 342 1002 q 317 1031 323 1019 q 309 1059 310 1043 q 312 1088 307 1076 q 327 1111 317 1101 q 347 1124 336 1120 q 371 1129 359 1129 q 396 1125 385 1130 q 416 1111 408 1120 q 429 1090 425 1102 q 435 1065 434 1078 q 432 1041 435 1053 q 421 1019 428 1029 q 403 1002 414 1009 q 379 995 392 996 m 572 1006 q 530 1021 547 1004 q 510 1061 512 1038 q 513 1086 509 1074 q 525 1106 517 1097 q 543 1119 533 1114 q 566 1125 553 1124 q 609 1109 591 1126 q 628 1067 627 1093 q 614 1024 630 1042 q 572 1006 598 1007 z "},"÷":{"ha":620,"x_min":0,"x_max":586,"o":"m 583 386 l 0 386 l 1 507 l 586 500 l 583 386 m 189 657 q 196 694 189 676 q 217 727 203 713 q 250 751 231 742 q 293 761 269 760 q 340 752 319 762 q 373 728 360 743 q 393 694 387 713 q 399 657 399 675 q 389 620 398 637 q 365 591 380 604 q 332 572 351 579 q 293 566 313 566 q 255 572 273 566 q 222 591 237 579 q 198 620 207 604 q 189 657 189 637 m 189 237 q 197 274 189 257 q 217 302 204 290 q 246 321 229 315 q 281 328 262 328 q 318 321 300 328 q 348 302 335 314 q 367 273 360 290 q 374 237 374 256 q 367 200 374 217 q 348 172 360 184 q 318 153 335 159 q 281 146 300 146 q 215 171 240 146 q 189 237 189 197 z "},"ø":{"ha":1082,"x_min":1,"x_max":1023,"o":"m 922 798 q 997 657 970 734 q 1023 496 1023 581 q 1005 364 1023 427 q 955 245 987 300 q 875 145 922 191 q 771 68 828 100 q 646 19 713 37 q 505 1 579 1 q 373 18 436 1 q 254 66 309 35 l 207 16 l 58 140 l 106 192 q 29 332 56 256 q 1 496 1 409 q 19 629 1 565 q 70 750 37 694 q 148 851 102 806 q 250 930 194 897 q 371 981 306 963 q 505 999 435 999 q 654 979 584 999 q 785 921 725 959 l 833 974 l 962 840 l 922 798 m 228 468 q 235 408 228 437 q 256 353 242 378 l 603 725 q 505 739 557 739 q 397 719 448 739 q 309 664 347 699 q 250 578 271 628 q 228 468 228 528 m 505 196 q 622 218 568 196 q 714 278 675 240 q 775 365 753 315 q 798 468 798 414 q 786 547 798 510 q 755 615 775 584 l 393 220 q 505 196 446 196 z "},"ù":{"ha":1038,"x_min":0,"x_max":966,"o":"m 0 972 l 300 972 q 298 698 300 819 q 300 485 296 577 q 315 330 303 393 q 352 226 326 266 q 422 170 378 186 q 534 157 466 153 q 646 187 603 160 q 712 263 688 214 q 743 380 735 311 q 752 536 751 449 q 749 726 753 623 q 746 947 746 829 q 763 947 746 947 q 804 947 779 947 q 857 947 828 947 q 909 947 885 947 q 950 947 934 947 q 966 947 966 947 q 966 758 966 840 q 965 614 966 676 q 962 507 964 553 q 958 424 961 461 q 951 356 956 387 q 942 293 947 326 q 896 175 931 230 q 805 80 860 121 q 677 16 749 39 q 522 -7 606 -7 q 376 6 441 -7 q 261 41 311 20 q 173 92 210 63 q 109 150 136 120 q 65 211 83 180 q 39 267 48 241 q 26 312 32 286 q 17 374 21 337 q 9 463 13 411 q 4 586 6 514 q 1 753 2 658 q 0 972 0 848 m 328 1100 l 391 1189 l 558 1048 l 513 990 l 328 1100 z "},"ú":{"ha":1038,"x_min":0,"x_max":966,"o":"m 0 972 l 300 972 q 298 698 300 819 q 300 485 296 577 q 315 330 303 393 q 352 226 326 266 q 422 170 378 186 q 534 157 466 153 q 646 187 603 160 q 712 263 688 214 q 743 380 735 311 q 752 536 751 449 q 749 726 753 623 q 746 947 746 829 q 763 947 746 947 q 804 947 779 947 q 857 947 828 947 q 909 947 885 947 q 950 947 934 947 q 966 947 966 947 q 966 758 966 840 q 965 614 966 676 q 962 507 964 553 q 958 424 961 461 q 951 356 956 387 q 942 293 947 326 q 896 175 931 230 q 805 80 860 121 q 677 16 749 39 q 522 -7 606 -7 q 376 6 441 -7 q 261 41 311 20 q 173 92 210 63 q 109 150 136 120 q 65 211 83 180 q 39 267 48 241 q 26 312 32 286 q 17 374 21 337 q 9 463 13 411 q 4 586 6 514 q 1 753 2 658 q 0 972 0 848 m 532 956 l 488 1014 l 654 1154 l 718 1065 l 532 956 z "},"û":{"ha":1038,"x_min":0,"x_max":966,"o":"m 0 972 l 300 972 q 298 698 300 819 q 300 485 296 577 q 315 330 303 393 q 352 226 326 266 q 422 170 378 186 q 534 157 466 153 q 646 187 603 160 q 712 263 688 214 q 743 380 735 311 q 752 536 751 449 q 749 726 753 623 q 746 947 746 829 q 763 947 746 947 q 804 947 779 947 q 857 947 828 947 q 909 947 885 947 q 950 947 934 947 q 966 947 966 947 q 966 758 966 840 q 965 614 966 676 q 962 507 964 553 q 958 424 961 461 q 951 356 956 387 q 942 293 947 326 q 896 175 931 230 q 805 80 860 121 q 677 16 749 39 q 522 -7 606 -7 q 376 6 441 -7 q 261 41 311 20 q 173 92 210 63 q 109 150 136 120 q 65 211 83 180 q 39 267 48 241 q 26 312 32 286 q 17 374 21 337 q 9 463 13 411 q 4 586 6 514 q 1 753 2 658 q 0 972 0 848 m 449 987 l 403 1023 l 563 1169 l 711 1023 l 653 986 l 556 1082 l 449 987 z "},"ü":{"ha":1038,"x_min":0,"x_max":966,"o":"m 0 972 l 300 972 q 298 698 300 819 q 300 485 296 577 q 315 330 303 393 q 352 226 326 266 q 422 170 378 186 q 534 157 466 153 q 646 187 603 160 q 712 263 688 214 q 743 380 735 311 q 752 536 751 449 q 749 726 753 623 q 746 947 746 829 q 763 947 746 947 q 804 947 779 947 q 857 947 828 947 q 909 947 885 947 q 950 947 934 947 q 966 947 966 947 q 966 758 966 840 q 965 614 966 676 q 962 507 964 553 q 958 424 961 461 q 951 356 956 387 q 942 293 947 326 q 896 175 931 230 q 805 80 860 121 q 677 16 749 39 q 522 -7 606 -7 q 376 6 441 -7 q 261 41 311 20 q 173 92 210 63 q 109 150 136 120 q 65 211 83 180 q 39 267 48 241 q 26 312 32 286 q 17 374 21 337 q 9 463 13 411 q 4 586 6 514 q 1 753 2 658 q 0 972 0 848 m 426 972 q 401 976 414 972 q 380 988 389 980 q 363 1008 370 996 q 355 1036 357 1021 q 359 1066 354 1053 q 373 1088 364 1079 q 394 1102 382 1097 q 418 1107 406 1107 q 443 1102 431 1107 q 463 1088 454 1097 q 476 1068 471 1080 q 481 1043 481 1056 q 478 1019 482 1031 q 468 997 475 1006 q 450 980 460 987 q 426 972 439 973 m 619 983 q 576 999 594 982 q 557 1039 559 1015 q 560 1063 556 1052 q 572 1083 564 1075 q 590 1097 580 1092 q 612 1103 600 1102 q 656 1087 638 1103 q 675 1044 673 1071 q 661 1002 677 1019 q 619 983 645 985 z "},"ý":{"ha":1023,"x_min":0,"x_max":954,"o":"m 954 864 l 632 475 l 659 5 l 416 -8 l 389 449 l 0 838 l 175 986 l 524 610 l 806 972 l 954 864 l 954 864 m 509 1013 l 464 1071 l 631 1211 l 694 1122 l 509 1013 z "},"þ":{"ha":772,"x_min":0,"x_max":708,"o":"m 705 518 q 704 461 708 495 q 684 390 700 427 q 638 316 669 353 q 559 251 608 279 q 438 205 509 222 q 268 191 366 189 l 275 -7 l 26 -17 l 0 985 l 221 993 l 228 789 q 284 795 251 793 q 355 797 317 798 q 430 790 392 795 q 503 772 469 785 q 578 732 543 758 q 641 671 614 705 q 684 598 667 637 q 705 518 701 559 m 256 343 q 284 342 264 343 q 329 343 304 342 q 381 352 354 345 q 429 372 408 358 q 462 411 450 387 q 470 472 474 435 q 404 559 463 538 q 243 567 346 581 l 256 343 z "},"ÿ":{"ha":1023,"x_min":0,"x_max":954,"o":"m 954 864 l 632 475 l 659 5 l 416 -8 l 389 449 l 0 838 l 175 986 l 524 610 l 806 972 l 954 864 l 954 864 m 423 949 q 399 952 411 948 q 377 964 387 956 q 361 985 368 972 q 353 1013 354 997 q 356 1042 351 1029 q 371 1064 361 1055 q 391 1078 380 1074 q 415 1083 403 1083 q 440 1079 429 1084 q 460 1065 452 1074 q 473 1044 469 1056 q 479 1019 478 1032 q 476 995 479 1007 q 465 973 472 983 q 447 956 458 963 q 423 949 436 949 m 616 960 q 574 975 591 958 q 554 1015 556 991 q 557 1040 553 1028 q 569 1060 562 1051 q 587 1073 577 1068 q 610 1079 597 1078 q 653 1063 635 1080 q 672 1021 671 1047 q 658 978 674 996 q 616 960 642 961 z "},"Ą":{"ha":986,"x_min":0,"x_max":920,"o":"m 798 36 q 773 -25 774 9 q 784 -83 772 -60 q 816 -121 795 -109 q 857 -138 837 -134 q 902 -138 886 -143 l 902 -214 q 885 -216 902 -215 q 837 -209 868 -217 q 770 -174 806 -201 q 733 -111 741 -146 q 729 -38 725 -76 q 739 20 732 0 l 798 36 m 631 277 l 329 277 l 236 0 l 0 65 l 355 972 l 551 960 l 920 79 l 736 12 l 631 277 m 578 395 l 460 671 l 368 395 l 578 395 z "},"ą":{"ha":986,"x_min":0,"x_max":920,"o":"m 798 36 q 773 -25 774 9 q 784 -83 772 -60 q 816 -121 795 -109 q 857 -138 837 -134 q 902 -138 886 -143 l 902 -214 q 885 -216 902 -215 q 837 -209 868 -217 q 770 -174 806 -201 q 733 -111 741 -146 q 729 -38 725 -76 q 739 20 732 0 l 798 36 m 631 277 l 329 277 l 236 0 l 0 65 l 355 972 l 551 960 l 920 79 l 736 12 l 631 277 m 578 395 l 460 671 l 368 395 l 578 395 z "},"Ć":{"ha":916,"x_min":5,"x_max":856,"o":"m 804 58 q 746 26 779 39 q 677 6 713 13 q 603 -4 640 -1 q 531 -7 565 -7 q 402 9 466 -7 q 280 54 338 24 q 172 124 222 83 q 86 215 123 165 q 30 325 50 266 q 9 449 9 384 q 20 588 5 521 q 64 715 34 656 q 141 824 95 774 q 250 908 188 873 q 389 964 312 944 q 556 983 465 983 q 668 975 615 983 q 761 955 720 966 q 826 933 801 944 q 856 918 851 923 l 856 671 q 813 691 842 680 q 749 711 785 703 q 669 723 712 720 q 583 722 626 727 q 521 715 556 722 q 450 693 486 709 q 379 654 413 678 q 320 595 345 630 q 284 514 295 560 q 283 410 273 468 q 325 324 292 361 q 403 262 357 287 q 504 224 449 237 q 613 211 559 212 q 718 220 668 210 q 804 254 768 231 l 804 58 m 488 1042 l 443 1100 l 610 1240 l 673 1152 l 488 1042 z "},"ć":{"ha":916,"x_min":5,"x_max":856,"o":"m 804 58 q 746 26 779 39 q 677 6 713 13 q 603 -4 640 -1 q 531 -7 565 -7 q 402 9 466 -7 q 280 54 338 24 q 172 124 222 83 q 86 215 123 165 q 30 325 50 266 q 9 449 9 384 q 20 588 5 521 q 64 715 34 656 q 141 824 95 774 q 250 908 188 873 q 389 964 312 944 q 556 983 465 983 q 668 975 615 983 q 761 955 720 966 q 826 933 801 944 q 856 918 851 923 l 856 671 q 813 691 842 680 q 749 711 785 703 q 669 723 712 720 q 583 722 626 727 q 521 715 556 722 q 450 693 486 709 q 379 654 413 678 q 320 595 345 630 q 284 514 295 560 q 283 410 273 468 q 325 324 292 361 q 403 262 357 287 q 504 224 449 237 q 613 211 559 212 q 718 220 668 210 q 804 254 768 231 l 804 58 m 488 1042 l 443 1100 l 610 1240 l 673 1152 l 488 1042 z "},"Ę":{"ha":861,"x_min":0,"x_max":787,"o":"m 675 15 q 651 -46 652 -12 q 661 -105 650 -81 q 693 -142 673 -130 q 734 -159 714 -155 q 779 -159 764 -164 l 779 -235 q 763 -237 779 -237 q 714 -230 746 -238 q 648 -195 683 -222 q 610 -132 618 -168 q 606 -60 602 -98 q 612 14 613 3 l 675 15 m 787 739 l 250 739 l 254 419 l 551 419 l 551 289 l 260 289 l 262 183 l 703 197 l 708 12 l 12 0 l 0 971 l 787 971 l 787 739 l 787 739 z "},"ę":{"ha":861,"x_min":0,"x_max":787,"o":"m 675 15 q 651 -46 652 -12 q 661 -105 650 -81 q 693 -142 673 -130 q 734 -159 714 -155 q 779 -159 764 -164 l 779 -235 q 763 -237 779 -237 q 714 -230 746 -238 q 648 -195 683 -222 q 610 -132 618 -168 q 606 -60 602 -98 q 612 14 613 3 l 675 15 m 787 739 l 250 739 l 254 419 l 551 419 l 551 289 l 260 289 l 262 183 l 703 197 l 708 12 l 12 0 l 0 971 l 787 971 l 787 739 l 787 739 z "},"Ł":{"ha":667,"x_min":-125,"x_max":597,"o":"m 510 593 l -93 402 l -125 515 l 481 700 l 510 593 m 41 0 l 1 966 l 266 979 l 292 180 l 589 201 l 597 26 l 41 0 z "},"ł":{"ha":667,"x_min":-125,"x_max":597,"o":"m 510 593 l -93 402 l -125 515 l 481 700 l 510 593 m 41 0 l 1 966 l 266 979 l 292 180 l 589 201 l 597 26 l 41 0 z "},"Ń":{"ha":912,"x_min":0,"x_max":840,"o":"m 248 589 l 261 0 l 0 0 l 0 972 l 197 972 l 631 354 l 602 962 l 825 971 l 840 26 l 657 12 l 248 589 m 376 971 l 331 1029 l 498 1170 l 562 1081 l 376 971 z "},"ń":{"ha":912,"x_min":0,"x_max":840,"o":"m 248 589 l 261 0 l 0 0 l 0 972 l 197 972 l 631 354 l 602 962 l 825 971 l 840 26 l 657 12 l 248 589 m 376 971 l 331 1029 l 498 1170 l 562 1081 l 376 971 z "},"Œ":{"ha":1157,"x_min":0,"x_max":0,"o":""},"œ":{"ha":1232,"x_min":0,"x_max":1157,"o":"m 1157 739 l 722 739 l 721 419 l 1015 419 l 1015 289 l 725 289 l 725 183 l 1097 197 l 1105 12 l 504 0 l 504 1 l 494 1 q 362 18 425 1 q 243 66 298 35 q 144 142 189 98 q 67 239 99 186 q 17 355 35 293 q 0 484 0 416 q 17 612 0 550 q 66 728 35 674 q 142 827 98 782 q 242 903 187 871 q 359 953 296 935 q 492 971 422 970 l 1157 971 l 1157 739 m 221 456 q 237 351 221 404 q 287 256 253 298 q 374 188 321 214 q 501 161 427 161 l 494 736 q 388 714 437 736 q 301 653 338 692 q 242 564 264 615 q 221 456 221 513 z "},"Ś":{"ha":831,"x_min":1,"x_max":770,"o":"m 144 275 q 285 184 225 205 q 385 196 345 164 q 393 233 401 212 q 363 275 386 253 q 308 321 341 298 q 242 367 275 345 q 178 411 208 390 q 132 449 149 432 q 115 463 128 452 q 86 492 102 473 q 52 535 69 510 q 22 592 34 560 q 5 661 9 623 q 11 742 1 699 q 63 841 26 797 q 150 916 99 885 q 265 964 201 947 q 397 981 328 981 q 507 975 456 981 q 603 957 558 970 q 690 924 648 945 q 770 873 731 904 l 637 647 q 569 701 608 677 q 491 740 531 725 q 411 758 450 754 q 341 751 372 761 q 289 716 309 741 q 265 647 268 690 q 281 581 265 610 q 321 528 296 552 q 378 481 347 503 q 443 437 410 460 q 507 390 476 415 q 560 332 537 364 q 594 260 583 300 q 602 168 606 220 q 573 83 597 118 q 514 27 549 48 q 435 -2 479 6 q 346 -7 391 -10 q 291 1 318 -5 q 238 14 264 6 q 189 32 212 22 q 144 51 165 41 q 53 102 96 73 q 99 188 79 150 q 116 220 108 204 q 131 248 124 235 q 141 267 137 260 q 144 275 144 275 m 353 1026 l 309 1084 l 475 1225 l 539 1136 l 353 1026 z "},"ś":{"ha":831,"x_min":1,"x_max":770,"o":"m 144 275 q 285 184 225 205 q 385 196 345 164 q 393 233 401 212 q 363 275 386 253 q 308 321 341 298 q 242 367 275 345 q 178 411 208 390 q 132 449 149 432 q 115 463 128 452 q 86 492 102 473 q 52 535 69 510 q 22 592 34 560 q 5 661 9 623 q 11 742 1 699 q 63 841 26 797 q 150 916 99 885 q 265 964 201 947 q 397 981 328 981 q 507 975 456 981 q 603 957 558 970 q 690 924 648 945 q 770 873 731 904 l 637 647 q 569 701 608 677 q 491 740 531 725 q 411 758 450 754 q 341 751 372 761 q 289 716 309 741 q 265 647 268 690 q 281 581 265 610 q 321 528 296 552 q 378 481 347 503 q 443 437 410 460 q 507 390 476 415 q 560 332 537 364 q 594 260 583 300 q 602 168 606 220 q 573 83 597 118 q 514 27 549 48 q 435 -2 479 6 q 346 -7 391 -10 q 291 1 318 -5 q 238 14 264 6 q 189 32 212 22 q 144 51 165 41 q 53 102 96 73 q 99 188 79 150 q 116 220 108 204 q 131 248 124 235 q 141 267 137 260 q 144 275 144 275 m 353 1026 l 309 1084 l 475 1225 l 539 1136 l 353 1026 z "},"Š":{"ha":830,"x_min":1,"x_max":770,"o":"m 144 275 q 285 184 225 205 q 385 196 345 164 q 393 233 401 212 q 363 275 386 253 q 308 321 341 298 q 242 367 275 345 q 178 411 208 390 q 132 449 149 432 q 115 463 128 452 q 86 492 102 473 q 52 535 69 510 q 22 592 34 560 q 5 661 9 623 q 11 742 1 699 q 63 841 26 797 q 150 916 99 885 q 265 964 201 947 q 397 981 328 981 q 507 975 456 981 q 603 957 558 970 q 690 924 648 945 q 770 873 731 904 l 637 647 q 569 701 608 677 q 491 740 531 725 q 411 758 450 754 q 341 751 372 761 q 289 716 309 741 q 265 647 268 690 q 281 581 265 610 q 321 528 296 552 q 378 481 347 503 q 443 437 410 460 q 507 390 476 415 q 560 332 537 364 q 594 260 583 300 q 602 168 606 220 q 573 83 597 118 q 514 27 549 48 q 435 -2 479 6 q 346 -7 391 -10 q 291 1 318 -5 q 238 14 264 6 q 189 32 212 22 q 144 51 165 41 q 53 102 96 73 q 99 188 79 150 q 116 220 108 204 q 131 248 124 235 q 141 267 137 260 q 144 275 144 275 m 504 1181 l 546 1146 l 416 1002 l 292 1142 l 338 1179 l 423 1086 l 504 1181 z "},"š":{"ha":831,"x_min":1,"x_max":770,"o":"m 144 275 q 285 184 225 205 q 385 196 345 164 q 393 233 401 212 q 363 275 386 253 q 308 321 341 298 q 242 367 275 345 q 178 411 208 390 q 132 449 149 432 q 115 463 128 452 q 86 492 102 473 q 52 535 69 510 q 22 592 34 560 q 5 661 9 623 q 11 742 1 699 q 63 841 26 797 q 150 916 99 885 q 265 964 201 947 q 397 981 328 981 q 507 975 456 981 q 603 957 558 970 q 690 924 648 945 q 770 873 731 904 l 637 647 q 569 701 608 677 q 491 740 531 725 q 411 758 450 754 q 341 751 372 761 q 289 716 309 741 q 265 647 268 690 q 281 581 265 610 q 321 528 296 552 q 378 481 347 503 q 443 437 410 460 q 507 390 476 415 q 560 332 537 364 q 594 260 583 300 q 602 168 606 220 q 573 83 597 118 q 514 27 549 48 q 435 -2 479 6 q 346 -7 391 -10 q 291 1 318 -5 q 238 14 264 6 q 189 32 212 22 q 144 51 165 41 q 53 102 96 73 q 99 188 79 150 q 116 220 108 204 q 131 248 124 235 q 141 267 137 260 q 144 275 144 275 m 514 1159 l 558 1128 l 422 998 l 291 1125 l 341 1158 l 429 1075 l 514 1159 z "},"Ÿ":{"ha":1024,"x_min":0,"x_max":954,"o":"m 632 475 l 659 5 l 416 -8 l 389 449 l 0 838 l 175 986 l 524 610 l 806 972 l 954 864 l 632 475 m 423 972 q 399 975 411 971 q 377 987 387 979 q 361 1008 368 996 q 353 1036 354 1020 q 356 1065 351 1053 q 371 1087 361 1078 q 391 1101 380 1097 q 415 1106 403 1106 q 440 1102 429 1107 q 460 1088 452 1097 q 473 1067 469 1079 q 479 1042 478 1055 q 476 1018 479 1030 q 465 996 472 1006 q 447 979 458 986 q 423 972 436 972 m 616 983 q 574 998 591 981 q 554 1038 556 1015 q 557 1063 553 1051 q 569 1083 562 1074 q 587 1096 577 1091 q 610 1102 597 1101 q 653 1086 635 1103 q 672 1044 671 1070 q 658 1001 674 1019 q 616 983 642 984 z "},"Ź":{"ha":828,"x_min":0,"x_max":686,"o":"m 345 175 l 635 171 l 627 4 l 66 22 l 66 160 l 439 745 l 0 745 l 0 974 l 686 964 l 686 782 l 345 175 l 345 175 m 349 1026 l 304 1084 l 471 1225 l 535 1136 l 349 1026 z "},"ź":{"ha":828,"x_min":0,"x_max":686,"o":"m 345 175 l 635 171 l 627 4 l 66 22 l 66 160 l 439 745 l 0 745 l 0 974 l 686 964 l 686 782 l 345 175 l 345 175 m 349 1026 l 304 1084 l 471 1225 l 535 1136 l 349 1026 z "},"Ż":{"ha":828,"x_min":0,"x_max":686,"o":"m 282 1107 q 289 1139 282 1123 q 307 1166 295 1154 q 334 1185 318 1178 q 372 1194 351 1193 q 412 1186 394 1194 q 441 1166 429 1179 q 458 1138 453 1154 q 463 1107 464 1122 q 454 1076 462 1090 q 434 1052 446 1062 q 405 1036 421 1042 q 372 1031 389 1031 q 339 1036 355 1031 q 311 1052 323 1042 q 290 1076 298 1062 q 282 1107 282 1090 m 345 175 l 635 171 l 627 4 l 66 22 l 66 160 l 439 745 l 0 745 l 0 974 l 686 964 l 686 782 l 345 175 l 345 175 z "},"ż":{"ha":828,"x_min":0,"x_max":686,"o":"m 282 1107 q 289 1139 282 1123 q 307 1166 295 1154 q 334 1185 318 1178 q 372 1194 351 1193 q 412 1186 394 1194 q 441 1166 429 1179 q 458 1138 453 1154 q 463 1107 464 1122 q 454 1076 462 1090 q 434 1052 446 1062 q 405 1036 421 1042 q 372 1031 389 1031 q 339 1036 355 1031 q 311 1052 323 1042 q 290 1076 298 1062 q 282 1107 282 1090 m 345 175 l 635 171 l 627 4 l 66 22 l 66 160 l 439 745 l 0 745 l 0 974 l 686 964 l 686 782 l 345 175 l 345 175 z "},"Ž":{"ha":828,"x_min":0,"x_max":686,"o":"m 635 171 l 627 4 l 66 22 l 66 160 l 439 745 l 0 745 l 0 974 l 686 964 l 686 782 l 345 175 l 635 171 m 456 1165 l 498 1131 l 368 986 l 243 1126 l 290 1164 l 375 1071 l 456 1165 z "},"ž":{"ha":828,"x_min":0,"x_max":686,"o":"m 345 175 l 635 171 l 627 4 l 66 22 l 66 160 l 439 745 l 0 745 l 0 974 l 686 964 l 686 782 l 345 175 l 345 175 m 467 1149 l 512 1118 l 373 987 l 240 1114 l 290 1148 l 381 1064 l 467 1149 z "},"ˆ":{"ha":252,"x_min":-1,"x_max":253,"o":"m 37 863 l -1 897 l 131 1040 l 253 897 l 205 861 l 125 956 l 37 863 z "},"ˇ":{"ha":250,"x_min":-4,"x_max":250,"o":"m 208 1039 l 250 1004 l 121 860 l -4 1000 l 43 1038 l 127 945 l 208 1039 z "},"˘":{"ha":330,"x_min":-1,"x_max":329,"o":"m 329 1029 q 289 949 315 982 q 231 898 263 916 q 165 878 199 880 q 98 890 130 876 q 39 935 66 905 q -1 1014 13 966 l 65 1039 q 159 956 100 954 q 260 1057 218 957 l 329 1029 z "},"˚":{"ha":211,"x_min":0,"x_max":211,"o":"m 103 1061 q 146 1053 126 1061 q 180 1031 165 1045 q 203 998 195 1017 q 211 958 211 979 q 203 919 211 937 q 180 888 195 901 q 146 866 165 874 q 103 859 126 859 q 63 866 82 859 q 31 888 45 874 q 8 919 16 901 q 0 958 0 937 q 8 998 0 979 q 31 1031 16 1017 q 63 1053 45 1045 q 103 1061 82 1061 m 103 905 q 142 920 127 905 q 157 953 157 934 q 142 987 157 974 q 103 1000 127 1000 q 69 987 83 1000 q 54 953 54 974 q 58 935 54 943 q 69 920 62 926 q 84 909 75 913 q 103 905 93 905 z "},"˜":{"ha":336,"x_min":0,"x_max":336,"o":"m 0 972 q 17 993 5 979 q 45 1020 28 1007 q 81 1044 61 1034 q 121 1054 100 1054 q 161 1042 147 1054 q 184 1017 175 1031 q 202 992 194 1004 q 225 981 210 981 q 245 987 235 981 q 262 1003 255 994 q 279 1026 271 1013 l 336 977 q 318 957 330 969 q 291 933 306 945 q 260 913 276 922 q 231 905 245 905 q 194 915 208 905 q 170 935 180 924 q 150 956 160 946 q 125 965 140 965 q 98 956 110 965 q 79 937 87 947 q 61 908 69 924 l 0 972 z "},"Ё":{"ha":862,"x_min":0,"x_max":787,"o":"m 250 739 l 254 419 l 551 419 l 551 289 l 260 289 l 262 183 l 703 197 l 708 12 l 12 0 l 0 971 l 787 971 l 787 739 l 250 739 m 101 1145 q 109 1184 101 1166 q 131 1216 117 1202 q 162 1236 144 1229 q 201 1244 180 1244 q 240 1236 222 1244 q 273 1215 259 1228 q 295 1183 287 1201 q 302 1145 302 1165 q 295 1105 302 1123 q 273 1073 287 1086 q 240 1053 259 1060 q 201 1045 222 1045 q 161 1053 179 1045 q 129 1073 142 1060 q 109 1105 116 1086 q 101 1145 101 1123 m 470 1145 q 478 1185 470 1166 q 500 1216 486 1203 q 531 1237 513 1230 q 570 1244 549 1244 q 609 1237 591 1244 q 642 1215 628 1229 q 664 1184 656 1202 q 671 1145 671 1166 q 664 1105 671 1124 q 642 1074 656 1087 q 609 1053 628 1061 q 570 1046 591 1046 q 530 1053 548 1046 q 498 1074 511 1061 q 477 1105 485 1087 q 470 1145 470 1124 z "},"А":{"ha":986,"x_min":0,"x_max":920,"o":"m 631 277 l 329 277 l 236 0 l 0 65 l 355 972 l 551 960 l 920 79 l 736 12 l 631 277 m 578 395 l 460 671 l 368 395 l 578 395 z "},"Б":{"ha":801,"x_min":-1,"x_max":769,"o":"m 269 233 q 368 235 323 231 q 446 252 413 239 q 497 288 479 264 q 518 349 516 312 q 504 415 519 390 q 461 453 488 439 q 404 471 435 466 q 343 475 372 475 q 293 472 315 475 q 263 469 271 469 l 269 233 m 262 -7 l 61 -3 l 20 -3 l 20 -2 l -1 -2 l 9 743 l 13 962 l 709 955 l 703 723 l 263 732 l 262 602 q 363 591 304 593 q 547 572 522 576 q 589 562 572 567 q 622 550 606 557 q 655 532 638 543 q 710 481 688 512 q 747 415 733 450 q 765 345 761 380 q 764 279 769 309 q 743 198 760 237 q 697 126 726 159 q 631 70 669 94 q 550 34 593 46 q 469 14 507 21 q 398 2 431 6 q 337 -4 366 -2 q 285 -6 309 -5 l 262 -5 l 262 -7 z "},"В":{"ha":833,"x_min":7,"x_max":769,"o":"m 269 233 q 368 235 323 231 q 446 252 413 239 q 497 288 479 264 q 518 349 516 312 q 504 415 519 390 q 461 453 488 439 q 404 471 435 466 q 343 475 372 475 q 293 472 315 475 q 263 469 271 469 l 269 233 m 266 663 q 325 661 292 661 q 387 668 357 661 q 437 695 416 676 q 460 750 457 713 q 451 792 462 776 q 421 818 439 808 q 379 830 402 827 q 333 834 355 833 q 291 832 310 834 q 261 829 271 831 l 266 663 m 764 279 q 743 198 760 237 q 697 126 726 159 q 631 70 669 94 q 550 34 593 46 q 469 14 507 21 q 398 2 431 6 q 337 -4 366 -2 q 285 -6 309 -5 l 20 -3 l 7 962 l 258 972 q 331 972 288 973 q 419 965 374 972 q 508 944 465 959 q 582 900 551 928 q 613 861 600 883 q 632 814 625 838 q 639 767 638 791 q 635 723 640 743 q 595 643 625 676 q 517 578 566 610 q 555 571 537 575 q 589 562 572 567 q 622 550 606 557 q 655 532 638 543 q 710 481 688 512 q 747 415 733 450 q 765 345 761 380 q 764 279 769 309 z "},"Г":{"ha":713,"x_min":0,"x_max":630,"o":"m 262 0 l 0 5 l 14 979 l 630 964 l 625 732 l 264 739 l 262 0 z "},"Д":{"ha":1354,"x_min":-3,"x_max":1332,"o":"m 880 168 l 669 671 l 509 171 l 880 168 m 229 1 l 191 -109 l -3 -106 l 54 173 l 149 174 l 170 174 l 256 173 l 565 972 l 761 960 l 1088 170 l 1175 172 l 1196 172 l 1286 173 l 1332 -113 l 1162 -111 l 1118 3 l 229 1 z "},"Е":{"ha":862,"x_min":0,"x_max":787,"o":"m 250 739 l 254 419 l 551 419 l 551 289 l 260 289 l 262 183 l 703 197 l 708 12 l 12 0 l 0 971 l 787 971 l 787 739 l 250 739 z "},"Ж":{"ha":1313,"x_min":51,"x_max":1249,"o":"m 903 455 l 1222 140 l 1090 7 l 804 332 l 814 130 l 825 7 l 821 7 l 557 -7 l 554 118 l 543 319 l 293 -35 l 148 83 l 433 429 l 51 750 l 206 926 l 526 618 l 508 958 l 508 959 l 687 968 l 772 972 l 789 633 l 1076 972 l 1249 813 l 903 455 z "},"З":{"ha":830,"x_min":-3,"x_max":766,"o":"m 138 273 q 279 182 219 202 q 378 193 338 161 q 392 230 395 210 q 373 274 389 250 q 325 321 356 299 q 265 352 293 343 q 204 368 237 360 q 131 381 171 375 q 133 500 130 437 q 380 480 307 463 q 446 528 422 504 q 487 581 471 552 q 503 647 503 610 q 479 716 500 690 q 427 751 458 741 q 356 758 395 761 q 277 740 317 754 q 198 701 237 725 q 130 647 160 677 l -3 873 q 78 924 37 904 q 164 957 119 945 q 260 975 210 970 q 370 981 311 981 q 503 964 439 981 q 617 916 566 947 q 705 841 669 885 q 757 742 741 797 q 762 661 766 699 q 746 592 758 623 q 716 535 734 560 q 682 492 699 510 q 652 463 665 473 q 522 367 640 452 q 553 330 539 349 q 588 258 576 298 q 595 165 600 218 q 567 80 591 115 q 508 24 543 45 q 429 -5 473 3 q 340 -9 385 -13 q 285 -2 312 -7 q 232 12 258 3 q 182 29 206 20 q 138 48 159 39 q 47 99 90 71 q 93 185 73 147 q 110 217 102 201 q 124 245 118 233 q 135 264 131 257 q 138 273 138 272 z "},"И":{"ha":912,"x_min":0,"x_max":840,"o":"m 261 0 l 0 0 l 0 972 l 197 972 l 254 362 l 602 962 l 825 971 l 840 26 l 657 12 l 617 644 l 261 0 z "},"Й":{"ha":912,"x_min":0,"x_max":840,"o":"m 261 0 l 0 0 l 0 972 l 197 972 l 254 362 l 602 962 l 825 971 l 840 26 l 657 12 l 617 644 l 261 0 m 565 1233 l 639 1180 l 410 960 l 189 1173 l 272 1230 l 422 1090 l 565 1233 z "},"К":{"ha":804,"x_min":0,"x_max":741,"o":"m 395 461 l 714 146 l 582 14 l 289 347 l 317 14 l 53 0 l 0 965 l 264 978 l 278 635 l 568 978 l 741 819 l 395 461 z "},"Л":{"ha":1070,"x_min":33,"x_max":1037,"o":"m 756 -1 l 500 675 l 229 16 l 33 81 l 421 977 l 638 990 l 1037 68 l 756 -1 z "},"М":{"ha":1068,"x_min":3,"x_max":999,"o":"m 530 267 l 800 945 l 983 950 l 999 26 l 781 24 l 778 525 l 558 -5 l 460 5 l 248 469 l 262 1 l 16 1 l 3 971 l 211 971 l 530 267 z "},"Н":{"ha":1057,"x_min":0,"x_max":987,"o":"m 958 970 l 987 22 l 762 12 l 754 286 l 292 277 l 292 0 l 1 0 l 0 949 l 290 949 l 290 435 l 747 447 l 729 961 l 958 970 z "},"О":{"ha":1082,"x_min":0,"x_max":1022,"o":"m 504 990 q 645 972 578 990 q 769 922 712 954 q 873 843 827 889 q 953 741 920 797 q 1004 621 986 686 q 1022 488 1022 557 q 1004 356 1022 419 q 953 237 986 292 q 873 137 920 182 q 769 60 827 92 q 645 11 712 28 q 504 -7 578 -7 q 369 11 434 -7 q 249 60 304 28 q 147 137 193 92 q 68 237 101 182 q 18 355 36 292 q 0 488 0 418 q 18 621 0 557 q 68 741 36 686 q 147 843 101 797 q 249 922 193 889 q 369 972 304 954 q 504 990 434 990 m 504 187 q 621 210 567 187 q 713 270 674 232 q 774 356 752 307 q 796 460 796 406 q 774 569 796 519 q 713 655 752 619 q 621 710 674 690 q 504 730 567 730 q 396 710 446 730 q 308 655 345 690 q 248 569 270 619 q 227 460 227 519 q 248 356 227 406 q 308 270 270 307 q 396 210 345 232 q 504 187 446 187 z "},"П":{"ha":1057,"x_min":0,"x_max":987,"o":"m 958 970 l 987 22 l 762 12 l 734 779 l 287 769 l 292 0 l 1 0 l 0 949 l 958 970 z "},"Р":{"ha":824,"x_min":0,"x_max":757,"o":"m 757 704 q 756 646 757 674 q 749 593 755 618 q 729 542 743 567 q 690 492 715 517 q 634 446 667 465 q 563 416 601 428 q 485 398 526 404 q 407 388 444 391 q 336 385 369 385 q 279 385 302 385 l 279 14 l 26 0 l 0 970 l 265 983 q 320 983 290 983 q 385 980 350 983 q 460 971 420 977 q 545 956 500 966 q 628 922 589 945 q 695 864 667 898 q 741 790 724 831 q 757 704 757 749 m 271 522 q 302 521 279 522 q 355 520 326 519 q 418 526 385 521 q 476 546 450 532 q 518 586 503 560 q 530 652 534 611 q 508 716 527 691 q 454 755 488 742 q 373 772 420 769 q 265 771 325 776 l 271 522 z "},"С":{"ha":916,"x_min":5,"x_max":856,"o":"m 804 58 q 746 26 779 39 q 677 6 713 13 q 603 -4 640 -1 q 531 -7 565 -7 q 402 9 466 -7 q 280 54 338 24 q 172 124 222 83 q 86 215 123 165 q 30 325 50 266 q 9 449 9 384 q 20 588 5 521 q 64 715 34 656 q 141 824 95 774 q 250 908 188 873 q 389 964 312 944 q 556 983 465 983 q 668 975 615 983 q 761 955 720 966 q 826 933 801 944 q 856 918 851 923 l 856 671 q 813 691 842 680 q 749 711 785 703 q 669 723 712 720 q 583 722 626 727 q 521 715 556 722 q 450 693 486 709 q 379 654 413 678 q 320 595 345 630 q 284 514 295 560 q 283 410 273 468 q 325 324 292 361 q 403 262 357 287 q 504 224 449 237 q 613 211 559 212 q 718 220 668 210 q 804 254 768 231 l 804 58 z "},"Т":{"ha":934,"x_min":0,"x_max":861,"o":"m 541 764 l 553 9 l 302 0 l 289 755 l 7 742 l 0 947 l 854 974 l 861 777 l 541 764 z "},"У":{"ha":1039,"x_min":-1,"x_max":1003,"o":"m 1003 921 l 604 -1 l 387 12 l 500 404 l -1 908 l 195 972 l 572 589 l 722 990 l 1003 921 z "},"Ф":{"ha":1082,"x_min":0,"x_max":1022,"o":"m 578 -188 l 391 -170 l 391 11 q 248 60 300 31 q 147 137 193 92 q 68 237 101 182 q 18 355 36 292 q 0 488 0 418 q 18 621 0 557 q 68 741 36 686 q 147 843 101 797 q 249 922 193 889 q 369 972 304 954 q 504 990 434 990 q 645 972 578 990 q 769 922 712 954 q 873 843 827 889 q 953 741 920 797 q 1004 621 986 686 q 1022 488 1022 557 q 1004 356 1022 419 q 953 237 986 292 q 873 137 920 182 q 769 60 827 92 q 645 11 712 28 q 581 3 635 8 l 578 -188 m 307 654 q 248 569 270 619 q 227 460 227 519 q 248 356 227 406 q 307 269 270 307 q 391 214 334 242 l 410 715 q 307 654 342 688 m 713 269 q 774 356 752 307 q 796 460 796 406 q 774 569 796 519 q 713 654 752 619 q 590 718 687 678 l 581 214 q 713 269 680 237 z "},"Х":{"ha":996,"x_min":8,"x_max":918,"o":"m 722 -4 l 450 311 l 172 5 l 8 172 l 306 486 l 20 803 l 211 974 l 476 663 l 717 939 l 851 814 l 591 519 l 918 157 l 722 -4 z "},"Ц":{"ha":1031,"x_min":0,"x_max":1012,"o":"m 261 0 l 0 0 l 0 972 l 197 972 l 247 166 l 648 188 l 602 962 l 825 971 l 838 206 l 859 206 l 1012 205 l 1010 -109 l 853 -109 l 854 8 l 819 9 l 818 9 l 261 0 z "},"Ч":{"ha":834,"x_min":20,"x_max":781,"o":"m 93 489 q 52 542 66 516 q 30 593 37 567 q 21 645 22 618 q 22 701 20 671 l 62 967 l 290 966 l 256 656 q 252 624 253 637 q 252 602 251 611 q 256 583 253 592 q 263 563 258 574 q 303 525 279 538 q 358 503 328 511 q 437 502 397 502 q 515 500 476 501 l 515 979 l 781 965 l 754 0 l 503 14 l 510 367 l 399 376 q 263 402 295 395 q 201 421 232 410 q 143 450 171 433 q 93 489 115 467 z "},"Ш":{"ha":1162,"x_min":0,"x_max":1113,"o":"m 261 0 l 0 0 l 0 972 l 197 972 l 247 170 l 490 174 l 485 972 l 658 970 l 707 180 l 920 188 l 873 962 l 1097 971 l 1109 206 l 1113 7 l 261 0 z "},"Щ":{"ha":1306,"x_min":0,"x_max":1283,"o":"m 261 0 l 0 0 l 0 972 l 197 972 l 251 166 l 490 174 l 485 972 l 658 970 l 707 180 l 920 188 l 873 962 l 1097 971 l 1109 206 l 1130 206 l 1283 205 l 1282 -109 l 1124 -109 l 1125 8 l 1090 9 l 1089 9 l 261 0 z "},"Ъ":{"ha":1096,"x_min":0,"x_max":1027,"o":"m 1025 290 q 1011 203 1027 245 q 968 127 996 161 q 902 68 940 93 q 819 33 864 44 q 735 15 775 22 q 661 5 696 8 q 595 0 625 1 q 541 -2 566 -1 l 275 5 l 277 743 l 275 774 l 158 774 l 157 658 l 0 659 l 3 981 l 278 976 l 532 968 l 541 597 q 597 598 564 598 q 668 597 630 599 q 747 589 706 595 q 825 573 787 584 q 897 544 863 562 q 954 500 930 527 q 994 451 980 475 q 1015 400 1008 426 q 1023 347 1022 375 q 1025 290 1025 319 m 536 211 q 643 212 595 208 q 724 231 690 216 q 777 271 758 245 q 798 336 795 297 q 784 402 800 377 q 741 441 768 427 q 682 459 715 454 q 620 464 650 464 q 567 462 590 464 q 535 460 543 460 l 536 211 z "},"Ы":{"ha":1123,"x_min":3,"x_max":1083,"o":"m 1083 960 l 817 974 l 777 1 l 1043 -12 l 1083 960 m 264 211 q 371 212 323 208 q 452 231 418 216 q 505 271 486 245 q 526 336 524 297 q 512 402 528 377 q 469 441 496 427 q 410 459 443 454 q 348 464 378 464 q 295 462 318 464 q 263 460 271 460 l 264 211 m 753 290 q 740 203 755 245 q 696 127 724 161 q 630 68 668 93 q 547 33 592 44 q 464 15 503 22 q 389 5 424 8 q 323 0 353 1 q 269 -2 294 -1 l 3 5 l 6 976 l 260 968 l 269 597 q 325 598 292 598 q 396 597 358 599 q 475 589 434 595 q 553 573 515 584 q 625 544 591 562 q 682 500 659 527 q 722 451 708 475 q 743 400 736 426 q 751 347 750 375 q 753 290 753 319 z "},"Ь":{"ha":824,"x_min":3,"x_max":755,"o":"m 264 211 q 371 212 323 208 q 452 231 418 216 q 505 271 486 245 q 526 336 524 297 q 512 402 528 377 q 469 441 496 427 q 410 459 443 454 q 348 464 378 464 q 295 462 318 464 q 263 460 271 460 l 264 211 m 753 290 q 740 203 755 245 q 696 127 724 161 q 630 68 668 93 q 547 33 592 44 q 464 15 503 22 q 389 5 424 8 q 323 0 353 1 q 269 -2 294 -1 l 3 5 l 6 976 l 260 968 l 269 597 q 325 598 292 598 q 396 597 358 599 q 475 589 434 595 q 553 573 515 584 q 625 544 591 562 q 682 500 659 527 q 722 451 708 475 q 743 400 736 426 q 751 347 750 375 q 753 290 753 319 z "},"Э":{"ha":916,"x_min":50,"x_max":900,"o":"m 102 254 q 188 220 138 231 q 292 211 237 210 q 401 224 347 212 q 502 262 456 237 q 621 356 549 272 l 324 357 l 324 487 l 626 485 q 621 514 628 484 q 586 595 610 560 q 527 654 561 630 q 456 693 492 678 q 384 715 419 709 q 323 722 349 722 q 236 723 279 727 q 157 711 193 720 q 92 691 120 703 q 50 671 64 680 l 50 918 q 79 933 54 923 q 145 955 104 944 q 238 975 185 966 q 349 983 290 983 q 517 964 440 983 q 655 908 593 944 q 764 824 718 873 q 841 715 810 774 q 886 588 871 656 q 897 449 900 521 q 876 325 897 384 q 819 215 855 266 q 733 124 783 165 q 626 54 684 83 q 504 9 568 24 q 374 -7 439 -7 q 303 -4 340 -7 q 229 6 265 -1 q 159 26 192 13 q 102 58 126 39 l 102 254 z "},"Ю":{"ha":1491,"x_min":6,"x_max":1430,"o":"m 912 187 q 1029 210 975 187 q 1121 270 1082 232 q 1182 356 1160 307 q 1204 460 1204 406 q 1182 569 1204 519 q 1121 655 1160 619 q 1029 710 1082 690 q 912 730 975 730 q 804 710 854 730 q 716 655 753 690 q 656 569 678 619 q 635 460 635 519 q 656 356 635 406 q 716 270 678 307 q 804 210 753 232 q 912 187 854 187 m 269 -1 l 6 4 l 20 978 l 275 970 l 270 488 l 408 487 l 408 488 q 426 621 408 557 q 477 741 444 686 q 555 843 509 797 q 657 922 601 889 q 778 972 713 954 q 912 990 842 990 q 1053 972 986 990 q 1178 922 1120 954 q 1282 843 1235 889 q 1361 741 1329 797 q 1412 621 1394 686 q 1430 488 1430 557 q 1412 356 1430 419 q 1361 237 1394 292 q 1282 137 1329 182 q 1178 60 1235 92 q 1053 11 1120 28 q 912 -7 986 -7 q 778 11 842 -7 q 657 60 713 28 q 555 137 601 92 q 477 237 509 182 q 426 355 444 292 q 426 357 426 356 l 270 361 l 269 -1 z "},"Я":{"ha":834,"x_min":20,"x_max":781,"o":"m 252 636 q 263 566 248 593 q 305 525 279 540 q 363 505 331 510 q 427 499 396 499 q 481 500 457 498 q 515 503 506 503 l 515 755 q 409 757 456 760 q 329 740 362 754 q 276 701 295 726 q 252 636 256 675 m 93 489 q 52 542 66 516 q 30 593 37 567 q 21 645 22 618 q 22 701 20 671 q 45 788 26 746 q 93 863 64 829 q 160 920 123 897 q 237 953 197 944 q 397 976 328 972 q 515 979 467 979 l 781 965 l 754 0 l 503 14 l 510 367 l 199 14 l 66 132 l 323 392 q 263 402 295 395 q 201 421 232 410 q 143 450 171 433 q 93 489 115 467 z "},"а":{"ha":986,"x_min":0,"x_max":920,"o":"m 631 277 l 329 277 l 236 0 l 0 65 l 355 972 l 551 960 l 920 79 l 736 12 l 631 277 m 578 395 l 460 671 l 368 395 l 578 395 z "},"б":{"ha":801,"x_min":-1,"x_max":769,"o":"m 269 233 q 368 235 323 231 q 446 252 413 239 q 497 288 479 264 q 518 349 516 312 q 504 415 519 390 q 461 453 488 439 q 404 471 435 466 q 343 475 372 475 q 293 472 315 475 q 263 469 271 469 l 269 233 m 262 -7 l 61 -3 l 20 -3 l 20 -2 l -1 -2 l 9 743 l 13 962 l 709 955 l 703 723 l 263 732 l 262 602 q 363 591 304 593 q 547 572 522 576 q 589 562 572 567 q 622 550 606 557 q 655 532 638 543 q 710 481 688 512 q 747 415 733 450 q 765 345 761 380 q 764 279 769 309 q 743 198 760 237 q 697 126 726 159 q 631 70 669 94 q 550 34 593 46 q 469 14 507 21 q 398 2 431 6 q 337 -4 366 -2 q 285 -6 309 -5 l 262 -5 l 262 -7 z "},"в":{"ha":833,"x_min":7,"x_max":769,"o":"m 269 233 q 368 235 323 231 q 446 252 413 239 q 497 288 479 264 q 518 349 516 312 q 504 415 519 390 q 461 453 488 439 q 404 471 435 466 q 343 475 372 475 q 293 472 315 475 q 263 469 271 469 l 269 233 m 266 663 q 325 661 292 661 q 387 668 357 661 q 437 695 416 676 q 460 750 457 713 q 451 792 462 776 q 421 818 439 808 q 379 830 402 827 q 333 834 355 833 q 291 832 310 834 q 261 829 271 831 l 266 663 m 764 279 q 743 198 760 237 q 697 126 726 159 q 631 70 669 94 q 550 34 593 46 q 469 14 507 21 q 398 2 431 6 q 337 -4 366 -2 q 285 -6 309 -5 l 20 -3 l 7 962 l 258 972 q 331 972 288 973 q 419 965 374 972 q 508 944 465 959 q 582 900 551 928 q 613 861 600 883 q 632 814 625 838 q 639 767 638 791 q 635 723 640 743 q 595 643 625 676 q 517 578 566 610 q 555 571 537 575 q 589 562 572 567 q 622 550 606 557 q 655 532 638 543 q 710 481 688 512 q 747 415 733 450 q 765 345 761 380 q 764 279 769 309 z "},"г":{"ha":713,"x_min":0,"x_max":630,"o":"m 262 0 l 0 5 l 14 979 l 630 964 l 625 732 l 264 739 l 262 0 z "},"д":{"ha":1354,"x_min":-3,"x_max":1332,"o":"m 880 168 l 669 671 l 509 171 l 880 168 m 229 1 l 191 -109 l -3 -106 l 54 173 l 149 174 l 170 174 l 256 173 l 565 972 l 761 960 l 1088 170 l 1175 172 l 1196 172 l 1286 173 l 1332 -113 l 1162 -111 l 1118 3 l 229 1 z "},"е":{"ha":862,"x_min":0,"x_max":787,"o":"m 250 739 l 254 419 l 551 419 l 551 289 l 260 289 l 262 183 l 703 197 l 708 12 l 12 0 l 0 971 l 787 971 l 787 739 l 250 739 z "},"ж":{"ha":1313,"x_min":51,"x_max":1249,"o":"m 903 455 l 1222 140 l 1090 7 l 804 332 l 814 130 l 825 7 l 821 7 l 557 -7 l 554 118 l 543 319 l 293 -35 l 148 83 l 433 429 l 51 750 l 206 926 l 526 618 l 508 958 l 508 959 l 687 968 l 772 972 l 789 633 l 1076 972 l 1249 813 l 903 455 z "},"з":{"ha":830,"x_min":-3,"x_max":766,"o":"m 138 273 q 279 182 219 202 q 378 193 338 161 q 392 230 395 210 q 373 274 389 250 q 325 321 356 299 q 265 352 293 343 q 204 368 237 360 q 131 381 171 375 q 133 500 130 437 q 380 480 307 463 q 446 528 422 504 q 487 581 471 552 q 503 647 503 610 q 479 716 500 690 q 427 751 458 741 q 356 758 395 761 q 277 740 317 754 q 198 701 237 725 q 130 647 160 677 l -3 873 q 78 924 37 904 q 164 957 119 945 q 260 975 210 970 q 370 981 311 981 q 503 964 439 981 q 617 916 566 947 q 705 841 669 885 q 757 742 741 797 q 762 661 766 699 q 746 592 758 623 q 716 535 734 560 q 682 492 699 510 q 652 463 665 473 q 522 367 640 452 q 553 330 539 349 q 588 258 576 298 q 595 165 600 218 q 567 80 591 115 q 508 24 543 45 q 429 -5 473 3 q 340 -9 385 -13 q 285 -2 312 -7 q 232 12 258 3 q 182 29 206 20 q 138 48 159 39 q 47 99 90 71 q 93 185 73 147 q 110 217 102 201 q 124 245 118 233 q 135 264 131 257 q 138 273 138 272 z "},"и":{"ha":912,"x_min":0,"x_max":840,"o":"m 261 0 l 0 0 l 0 972 l 197 972 l 254 362 l 602 962 l 825 971 l 840 26 l 657 12 l 617 644 l 261 0 z "},"й":{"ha":912,"x_min":0,"x_max":840,"o":"m 261 0 l 0 0 l 0 972 l 197 972 l 254 362 l 602 962 l 825 971 l 840 26 l 657 12 l 617 644 l 261 0 m 565 1233 l 639 1180 l 410 960 l 189 1173 l 272 1230 l 422 1090 l 565 1233 z "},"к":{"ha":804,"x_min":0,"x_max":741,"o":"m 395 461 l 714 146 l 582 14 l 289 347 l 317 14 l 53 0 l 0 965 l 264 978 l 278 635 l 568 978 l 741 819 l 395 461 z "},"л":{"ha":1070,"x_min":33,"x_max":1037,"o":"m 756 -1 l 500 675 l 229 16 l 33 81 l 421 977 l 638 990 l 1037 68 l 756 -1 z "},"м":{"ha":1068,"x_min":3,"x_max":999,"o":"m 530 267 l 800 945 l 983 950 l 999 26 l 781 24 l 778 525 l 558 -5 l 460 5 l 248 469 l 262 1 l 16 1 l 3 971 l 211 971 l 530 267 z "},"н":{"ha":1057,"x_min":0,"x_max":987,"o":"m 958 970 l 987 22 l 762 12 l 754 286 l 292 277 l 292 0 l 1 0 l 0 949 l 290 949 l 290 435 l 747 447 l 729 961 l 958 970 z "},"о":{"ha":1082,"x_min":0,"x_max":1022,"o":"m 504 990 q 645 972 578 990 q 769 922 712 954 q 873 843 827 889 q 953 741 920 797 q 1004 621 986 686 q 1022 488 1022 557 q 1004 356 1022 419 q 953 237 986 292 q 873 137 920 182 q 769 60 827 92 q 645 11 712 28 q 504 -7 578 -7 q 369 11 434 -7 q 249 60 304 28 q 147 137 193 92 q 68 237 101 182 q 18 355 36 292 q 0 488 0 418 q 18 621 0 557 q 68 741 36 686 q 147 843 101 797 q 249 922 193 889 q 369 972 304 954 q 504 990 434 990 m 504 187 q 621 210 567 187 q 713 270 674 232 q 774 356 752 307 q 796 460 796 406 q 774 569 796 519 q 713 655 752 619 q 621 710 674 690 q 504 730 567 730 q 396 710 446 730 q 308 655 345 690 q 248 569 270 619 q 227 460 227 519 q 248 356 227 406 q 308 270 270 307 q 396 210 345 232 q 504 187 446 187 z "},"п":{"ha":1057,"x_min":0,"x_max":987,"o":"m 958 970 l 987 22 l 762 12 l 734 779 l 287 769 l 292 0 l 1 0 l 0 949 l 958 970 z "},"р":{"ha":824,"x_min":0,"x_max":757,"o":"m 757 704 q 756 646 757 674 q 749 593 755 618 q 729 542 743 567 q 690 492 715 517 q 634 446 667 465 q 563 416 601 428 q 485 398 526 404 q 407 388 444 391 q 336 385 369 385 q 279 385 302 385 l 279 14 l 26 0 l 0 970 l 265 983 q 320 983 290 983 q 385 980 350 983 q 460 971 420 977 q 545 956 500 966 q 628 922 589 945 q 695 864 667 898 q 741 790 724 831 q 757 704 757 749 m 271 522 q 302 521 279 522 q 355 520 326 519 q 418 526 385 521 q 476 546 450 532 q 518 586 503 560 q 530 652 534 611 q 508 716 527 691 q 454 755 488 742 q 373 772 420 769 q 265 771 325 776 l 271 522 z "},"с":{"ha":916,"x_min":5,"x_max":856,"o":"m 804 58 q 746 26 779 39 q 677 6 713 13 q 603 -4 640 -1 q 531 -7 565 -7 q 402 9 466 -7 q 280 54 338 24 q 172 124 222 83 q 86 215 123 165 q 30 325 50 266 q 9 449 9 384 q 20 588 5 521 q 64 715 34 656 q 141 824 95 774 q 250 908 188 873 q 389 964 312 944 q 556 983 465 983 q 668 975 615 983 q 761 955 720 966 q 826 933 801 944 q 856 918 851 923 l 856 671 q 813 691 842 680 q 749 711 785 703 q 669 723 712 720 q 583 722 626 727 q 521 715 556 722 q 450 693 486 709 q 379 654 413 678 q 320 595 345 630 q 284 514 295 560 q 283 410 273 468 q 325 324 292 361 q 403 262 357 287 q 504 224 449 237 q 613 211 559 212 q 718 220 668 210 q 804 254 768 231 l 804 58 z "},"т":{"ha":934,"x_min":0,"x_max":861,"o":"m 541 764 l 553 9 l 302 0 l 289 755 l 7 742 l 0 947 l 854 974 l 861 777 l 541 764 z "},"у":{"ha":1039,"x_min":-1,"x_max":1003,"o":"m 1003 921 l 604 -1 l 387 12 l 500 404 l -1 908 l 195 972 l 572 589 l 722 990 l 1003 921 z "},"ф":{"ha":1082,"x_min":0,"x_max":1022,"o":"m 578 -188 l 391 -170 l 391 11 q 248 60 300 31 q 147 137 193 92 q 68 237 101 182 q 18 355 36 292 q 0 488 0 418 q 18 621 0 557 q 68 741 36 686 q 147 843 101 797 q 249 922 193 889 q 369 972 304 954 q 504 990 434 990 q 645 972 578 990 q 769 922 712 954 q 873 843 827 889 q 953 741 920 797 q 1004 621 986 686 q 1022 488 1022 557 q 1004 356 1022 419 q 953 237 986 292 q 873 137 920 182 q 769 60 827 92 q 645 11 712 28 q 581 3 635 8 l 578 -188 m 307 654 q 248 569 270 619 q 227 460 227 519 q 248 356 227 406 q 307 269 270 307 q 391 214 334 242 l 410 715 q 307 654 342 688 m 713 269 q 774 356 752 307 q 796 460 796 406 q 774 569 796 519 q 713 654 752 619 q 590 718 687 678 l 581 214 q 713 269 680 237 z "},"х":{"ha":996,"x_min":8,"x_max":918,"o":"m 722 -4 l 450 311 l 172 5 l 8 172 l 306 486 l 20 803 l 211 974 l 476 663 l 717 939 l 851 814 l 591 519 l 918 157 l 722 -4 z "},"ц":{"ha":1031,"x_min":0,"x_max":1012,"o":"m 261 0 l 0 0 l 0 972 l 197 972 l 247 166 l 648 188 l 602 962 l 825 971 l 838 206 l 859 206 l 1012 205 l 1010 -109 l 853 -109 l 854 8 l 819 9 l 818 9 l 261 0 z "},"ч":{"ha":834,"x_min":20,"x_max":781,"o":"m 93 489 q 52 542 66 516 q 30 593 37 567 q 21 645 22 618 q 22 701 20 671 l 62 967 l 290 966 l 256 656 q 252 624 253 637 q 252 602 251 611 q 256 583 253 592 q 263 563 258 574 q 303 525 279 538 q 358 503 328 511 q 437 502 397 502 q 515 500 476 501 l 515 979 l 781 965 l 754 0 l 503 14 l 510 367 l 399 376 q 263 402 295 395 q 201 421 232 410 q 143 450 171 433 q 93 489 115 467 z "},"ш":{"ha":1162,"x_min":0,"x_max":1113,"o":"m 261 0 l 0 0 l 0 972 l 197 972 l 247 170 l 490 174 l 485 972 l 658 970 l 707 180 l 920 188 l 873 962 l 1097 971 l 1109 206 l 1113 7 l 261 0 z "},"щ":{"ha":1306,"x_min":0,"x_max":1283,"o":"m 261 0 l 0 0 l 0 972 l 197 972 l 251 166 l 490 174 l 485 972 l 658 970 l 707 180 l 920 188 l 873 962 l 1097 971 l 1109 206 l 1130 206 l 1283 205 l 1282 -109 l 1124 -109 l 1125 8 l 1090 9 l 1089 9 l 261 0 z "},"ъ":{"ha":1096,"x_min":0,"x_max":1027,"o":"m 1025 290 q 1011 203 1027 245 q 968 127 996 161 q 902 68 940 93 q 819 33 864 44 q 735 15 775 22 q 661 5 696 8 q 595 0 625 1 q 541 -2 566 -1 l 275 5 l 277 743 l 275 774 l 158 774 l 157 658 l 0 659 l 3 981 l 278 976 l 532 968 l 541 597 q 597 598 564 598 q 668 597 630 599 q 747 589 706 595 q 825 573 787 584 q 897 544 863 562 q 954 500 930 527 q 994 451 980 475 q 1015 400 1008 426 q 1023 347 1022 375 q 1025 290 1025 319 m 536 211 q 643 212 595 208 q 724 231 690 216 q 777 271 758 245 q 798 336 795 297 q 784 402 800 377 q 741 441 768 427 q 682 459 715 454 q 620 464 650 464 q 567 462 590 464 q 535 460 543 460 l 536 211 z "},"ы":{"ha":1123,"x_min":3,"x_max":1083,"o":"m 1083 960 l 817 974 l 777 1 l 1043 -12 l 1083 960 m 264 211 q 371 212 323 208 q 452 231 418 216 q 505 271 486 245 q 526 336 524 297 q 512 402 528 377 q 469 441 496 427 q 410 459 443 454 q 348 464 378 464 q 295 462 318 464 q 263 460 271 460 l 264 211 m 753 290 q 740 203 755 245 q 696 127 724 161 q 630 68 668 93 q 547 33 592 44 q 464 15 503 22 q 389 5 424 8 q 323 0 353 1 q 269 -2 294 -1 l 3 5 l 6 976 l 260 968 l 269 597 q 325 598 292 598 q 396 597 358 599 q 475 589 434 595 q 553 573 515 584 q 625 544 591 562 q 682 500 659 527 q 722 451 708 475 q 743 400 736 426 q 751 347 750 375 q 753 290 753 319 z "},"ь":{"ha":824,"x_min":3,"x_max":755,"o":"m 264 211 q 371 212 323 208 q 452 231 418 216 q 505 271 486 245 q 526 336 524 297 q 512 402 528 377 q 469 441 496 427 q 410 459 443 454 q 348 464 378 464 q 295 462 318 464 q 263 460 271 460 l 264 211 m 753 290 q 740 203 755 245 q 696 127 724 161 q 630 68 668 93 q 547 33 592 44 q 464 15 503 22 q 389 5 424 8 q 323 0 353 1 q 269 -2 294 -1 l 3 5 l 6 976 l 260 968 l 269 597 q 325 598 292 598 q 396 597 358 599 q 475 589 434 595 q 553 573 515 584 q 625 544 591 562 q 682 500 659 527 q 722 451 708 475 q 743 400 736 426 q 751 347 750 375 q 753 290 753 319 z "},"э":{"ha":916,"x_min":50,"x_max":900,"o":"m 102 254 q 188 220 138 231 q 292 211 237 210 q 401 224 347 212 q 502 262 456 237 q 621 356 549 272 l 324 357 l 324 487 l 626 485 q 621 514 628 484 q 586 595 610 560 q 527 654 561 630 q 456 693 492 678 q 384 715 419 709 q 323 722 349 722 q 236 723 279 727 q 157 711 193 720 q 92 691 120 703 q 50 671 64 680 l 50 918 q 79 933 54 923 q 145 955 104 944 q 238 975 185 966 q 349 983 290 983 q 517 964 440 983 q 655 908 593 944 q 764 824 718 873 q 841 715 810 774 q 886 588 871 656 q 897 449 900 521 q 876 325 897 384 q 819 215 855 266 q 733 124 783 165 q 626 54 684 83 q 504 9 568 24 q 374 -7 439 -7 q 303 -4 340 -7 q 229 6 265 -1 q 159 26 192 13 q 102 58 126 39 l 102 254 z "},"ю":{"ha":1491,"x_min":6,"x_max":1430,"o":"m 912 187 q 1029 210 975 187 q 1121 270 1082 232 q 1182 356 1160 307 q 1204 460 1204 406 q 1182 569 1204 519 q 1121 655 1160 619 q 1029 710 1082 690 q 912 730 975 730 q 804 710 854 730 q 716 655 753 690 q 656 569 678 619 q 635 460 635 519 q 656 356 635 406 q 716 270 678 307 q 804 210 753 232 q 912 187 854 187 m 269 -1 l 6 4 l 20 978 l 275 970 l 270 488 l 408 487 l 408 488 q 426 621 408 557 q 477 741 444 686 q 555 843 509 797 q 657 922 601 889 q 778 972 713 954 q 912 990 842 990 q 1053 972 986 990 q 1178 922 1120 954 q 1282 843 1235 889 q 1361 741 1329 797 q 1412 621 1394 686 q 1430 488 1430 557 q 1412 356 1430 419 q 1361 237 1394 292 q 1282 137 1329 182 q 1178 60 1235 92 q 1053 11 1120 28 q 912 -7 986 -7 q 778 11 842 -7 q 657 60 713 28 q 555 137 601 92 q 477 237 509 182 q 426 355 444 292 q 426 357 426 356 l 270 361 l 269 -1 z "},"я":{"ha":834,"x_min":20,"x_max":781,"o":"m 252 636 q 263 566 248 593 q 305 525 279 540 q 363 505 331 510 q 427 499 396 499 q 481 500 457 498 q 515 503 506 503 l 515 755 q 409 757 456 760 q 329 740 362 754 q 276 701 295 726 q 252 636 256 675 m 93 489 q 52 542 66 516 q 30 593 37 567 q 21 645 22 618 q 22 701 20 671 q 45 788 26 746 q 93 863 64 829 q 160 920 123 897 q 237 953 197 944 q 397 976 328 972 q 515 979 467 979 l 781 965 l 754 0 l 503 14 l 510 367 l 199 14 l 66 132 l 323 392 q 263 402 295 395 q 201 421 232 410 q 143 450 171 433 q 93 489 115 467 z "},"ё":{"ha":862,"x_min":0,"x_max":787,"o":"m 250 739 l 254 419 l 551 419 l 551 289 l 260 289 l 262 183 l 703 197 l 708 12 l 12 0 l 0 971 l 787 971 l 787 739 l 250 739 m 101 1145 q 109 1184 101 1166 q 131 1216 117 1202 q 162 1236 144 1229 q 201 1244 180 1244 q 240 1236 222 1244 q 273 1215 259 1228 q 295 1183 287 1201 q 302 1145 302 1165 q 295 1105 302 1123 q 273 1073 287 1086 q 240 1053 259 1060 q 201 1045 222 1045 q 161 1053 179 1045 q 129 1073 142 1060 q 109 1105 116 1086 q 101 1145 101 1123 m 470 1145 q 478 1185 470 1166 q 500 1216 486 1203 q 531 1237 513 1230 q 570 1244 549 1244 q 609 1237 591 1244 q 642 1215 628 1229 q 664 1184 656 1202 q 671 1145 671 1166 q 664 1105 671 1124 q 642 1074 656 1087 q 609 1053 628 1061 q 570 1046 591 1046 q 530 1053 548 1046 q 498 1074 511 1061 q 477 1105 485 1087 q 470 1145 470 1124 z "},"–":{"ha":583,"x_min":1,"x_max":514,"o":"m 511 343 l 1 343 l 3 456 l 514 449 l 511 343 z "},"—":{"ha":804,"x_min":0,"x_max":734,"o":"m 732 306 l 0 306 l 1 422 l 734 415 l 732 306 z "},"‘":{"ha":278,"x_min":7,"x_max":215,"o":"m 14 807 q 9 830 11 818 q 9 857 7 843 q 15 888 10 871 q 32 924 20 904 q 54 956 41 940 q 81 988 67 972 q 111 1017 96 1003 q 139 1042 125 1031 l 191 996 q 161 969 173 981 q 140 947 149 957 q 125 928 131 937 q 155 917 140 923 q 180 901 169 910 q 200 878 192 891 q 211 847 208 865 q 211 807 215 827 q 196 772 206 788 q 169 746 185 757 q 134 732 153 735 q 59 745 92 724 q 14 807 26 765 z "},"’":{"ha":278,"x_min":1,"x_max":208,"o":"m 203 962 q 207 939 205 951 q 207 913 208 927 q 199 882 205 899 q 181 847 193 866 q 157 815 171 831 q 129 784 144 799 q 98 756 114 770 q 68 733 83 743 l 19 782 q 50 807 37 795 q 72 828 63 819 q 88 847 82 838 q 33 877 56 858 q 5 930 10 895 q 7 970 1 951 q 24 1005 12 989 q 52 1030 36 1020 q 88 1043 68 1040 q 161 1026 130 1048 q 203 962 193 1004 z "},"‚":{"ha":278,"x_min":1,"x_max":208,"o":"m 203 132 q 207 109 205 121 q 207 82 208 96 q 199 52 205 68 q 181 17 193 35 q 157 -15 171 1 q 129 -46 144 -31 q 98 -74 114 -60 q 68 -97 83 -87 l 19 -49 q 50 -23 37 -35 q 72 -2 63 -12 q 88 17 82 8 q 33 46 56 27 q 5 100 10 64 q 7 140 1 121 q 24 174 12 159 q 52 199 36 189 q 88 212 68 210 q 161 196 130 218 q 203 132 193 174 z "},"€":{"ha":667,"x_min":1,"x_max":596,"o":"m 596 749 q 559 759 584 753 q 503 766 535 764 q 435 763 471 768 q 365 741 399 758 q 301 693 331 724 q 252 611 271 662 l 524 593 l 517 498 l 237 517 q 234 484 235 501 q 233 453 233 470 q 237 422 234 437 l 454 422 l 454 329 l 267 329 q 296 275 278 297 q 333 239 313 254 q 374 217 353 225 q 414 206 395 210 q 447 202 433 203 q 469 201 462 201 l 469 46 q 320 68 382 46 q 213 129 257 90 q 141 218 170 167 q 96 329 113 270 l 16 329 l 16 422 l 78 422 q 73 459 74 440 q 71 494 71 478 q 71 532 70 513 l 1 533 l 8 635 l 81 628 q 132 748 98 692 q 211 846 165 804 q 311 913 256 888 q 425 937 366 937 q 504 932 472 937 q 557 922 536 928 q 596 908 581 916 l 596 749 l 596 749 z "},"™":{"ha":833,"x_min":0,"x_max":765,"o":"m 332 899 l 210 893 l 214 602 l 117 597 l 111 890 l 3 885 l 0 965 l 330 975 l 334 899 l 332 899 m 582 699 l 688 962 l 758 964 l 765 604 l 679 603 l 679 799 l 593 591 l 555 596 l 472 778 l 478 595 l 382 595 l 378 972 l 458 972 l 582 699 z "},"−":{"ha":654,"x_min":0,"x_max":586,"o":"m 583 404 l 0 404 l 1 525 l 586 518 l 583 404 z "},"İ":{"ha":413,"x_min":45,"x_max":351,"o":"m 311 -5 l 45 8 l 85 981 l 351 966 l 311 -5 l 311 -5 m 135 1107 q 143 1146 135 1128 q 165 1178 151 1164 q 196 1198 178 1191 q 235 1206 214 1206 q 274 1198 256 1206 q 307 1177 293 1190 q 329 1145 321 1163 q 336 1107 336 1127 q 329 1067 336 1085 q 307 1035 321 1048 q 274 1015 293 1022 q 235 1007 256 1007 q 195 1015 213 1007 q 163 1035 176 1022 q 142 1067 150 1048 q 135 1107 135 1085 z "},"Ğ":{"ha":908,"x_min":-1,"x_max":851,"o":"m 578 720 q 516 712 551 720 q 444 690 481 705 q 373 650 407 675 q 314 591 338 626 q 278 510 289 556 q 277 406 267 464 q 319 313 287 352 q 396 250 351 274 q 495 216 441 226 q 603 211 549 206 l 603 328 l 486 328 l 486 485 l 800 485 l 800 250 l 800 54 l 800 1 l 616 1 l 525 1 q 396 16 460 1 q 274 59 332 31 q 166 125 216 86 q 80 214 117 165 q 23 322 44 264 q 3 446 3 380 q 14 585 -1 517 q 58 711 28 652 q 135 821 89 771 q 244 906 182 870 q 383 961 306 941 q 551 981 460 981 q 663 972 610 981 q 755 952 715 964 q 820 931 795 941 q 851 916 846 920 l 851 668 q 809 688 837 677 q 744 708 781 699 q 664 720 707 716 q 578 720 621 724 m 684 1130 q 645 1049 671 1082 q 587 998 618 1016 q 520 979 555 981 q 453 991 486 977 q 395 1036 421 1005 q 354 1114 368 1066 l 420 1139 q 514 1056 455 1055 q 615 1158 574 1057 l 684 1130 z "},"Ş":{"ha":814,"x_min":-3,"x_max":766,"o":"m 140 275 q 281 184 221 205 q 380 196 340 164 q 389 233 397 212 q 359 275 382 253 q 304 321 337 298 q 238 367 271 345 q 174 411 204 390 q 127 449 144 432 q 111 463 124 452 q 82 492 98 473 q 47 535 65 510 q 18 592 30 560 q 1 661 5 623 q 7 742 -3 699 q 59 841 22 797 q 146 916 95 885 q 261 964 197 947 q 393 981 324 981 q 503 975 452 981 q 599 957 554 970 q 686 924 644 945 q 766 873 727 904 l 633 647 q 565 701 604 677 q 487 740 527 725 q 407 758 446 754 q 337 751 368 761 q 284 716 305 741 q 261 647 264 690 q 277 581 261 610 q 317 528 292 552 q 374 481 342 503 q 439 437 406 460 q 503 390 472 415 q 556 332 533 364 q 590 260 578 300 q 597 168 602 220 q 569 83 593 118 q 510 27 545 48 q 431 -2 475 6 q 342 -7 387 -10 q 287 1 314 -5 q 234 14 260 6 q 184 32 208 22 q 140 51 161 41 q 49 102 92 73 q 95 188 75 150 q 112 220 104 204 q 126 248 120 235 q 137 267 133 260 q 140 275 140 275 m 297 -8 q 292 -18 292 -15 l 292 -26 q 301 -34 292 -31 q 323 -41 310 -38 q 353 -47 337 -44 q 382 -58 368 -51 q 406 -77 396 -65 q 416 -98 415 -89 l 416 -109 l 416 -123 q 401 -161 416 -137 q 359 -201 387 -185 q 292 -227 331 -218 q 229 -233 252 -235 l 205 -232 l 204 -147 q 230 -150 212 -149 q 269 -149 249 -151 q 304 -139 288 -146 q 319 -124 319 -132 l 319 -111 q 312 -98 319 -106 q 292 -87 304 -92 q 267 -78 280 -82 q 241 -68 252 -74 q 220 -54 229 -62 q 213 -34 212 -47 q 216 -17 212 -24 q 224 -4 219 -9 q 237 5 230 1 q 247 10 242 7 l 305 -1 q 297 -8 300 -3 z "},"ı":{"ha":431,"x_min":45,"x_max":351,"o":"m 311 -5 l 45 8 l 85 981 l 351 966 l 311 -5 l 311 -5 m 135 1107 q 143 1146 135 1128 q 165 1178 151 1164 q 196 1198 178 1191 q 235 1206 214 1206 q 274 1198 256 1206 q 307 1177 293 1190 q 329 1145 321 1163 q 336 1107 336 1127 q 329 1067 336 1085 q 307 1035 321 1048 q 274 1015 293 1022 q 235 1007 256 1007 q 195 1015 213 1007 q 163 1035 176 1022 q 142 1067 150 1048 q 135 1107 135 1085 z "},"ş":{"ha":859,"x_min":-3,"x_max":766,"o":"m 140 275 q 281 184 221 205 q 380 196 340 164 q 389 233 397 212 q 359 275 382 253 q 304 321 337 298 q 238 367 271 345 q 174 411 204 390 q 127 449 144 432 q 111 463 124 452 q 82 492 98 473 q 47 535 65 510 q 18 592 30 560 q 1 661 5 623 q 7 742 -3 699 q 59 841 22 797 q 146 916 95 885 q 261 964 197 947 q 393 981 324 981 q 503 975 452 981 q 599 957 554 970 q 686 924 644 945 q 766 873 727 904 l 633 647 q 565 701 604 677 q 487 740 527 725 q 407 758 446 754 q 337 751 368 761 q 284 716 305 741 q 261 647 264 690 q 277 581 261 610 q 317 528 292 552 q 374 481 342 503 q 439 437 406 460 q 503 390 472 415 q 556 332 533 364 q 590 260 578 300 q 597 168 602 220 q 569 83 593 118 q 510 27 545 48 q 431 -2 475 6 q 342 -7 387 -10 q 287 1 314 -5 q 234 14 260 6 q 184 32 208 22 q 140 51 161 41 q 49 102 92 73 q 95 188 75 150 q 112 220 104 204 q 126 248 120 235 q 137 267 133 260 q 140 275 140 275 m 297 -8 q 292 -18 292 -15 l 292 -26 q 301 -34 292 -31 q 323 -41 310 -38 q 353 -47 337 -44 q 382 -58 368 -51 q 406 -77 396 -65 q 416 -98 415 -89 l 416 -109 l 416 -123 q 401 -161 416 -137 q 359 -201 387 -185 q 292 -227 331 -218 q 229 -233 252 -235 l 205 -232 l 204 -147 q 230 -150 212 -149 q 269 -149 249 -151 q 304 -139 288 -146 q 319 -124 319 -132 l 319 -111 q 312 -98 319 -106 q 292 -87 304 -92 q 267 -78 280 -82 q 241 -68 252 -74 q 220 -54 229 -62 q 213 -34 212 -47 q 216 -17 212 -24 q 224 -4 219 -9 q 237 5 230 1 q 247 10 242 7 l 305 -1 q 297 -8 300 -3 z "},"ğ":{"ha":932,"x_min":-1,"x_max":851,"o":"m 578 720 q 516 712 551 720 q 444 690 481 705 q 373 650 407 675 q 314 591 338 626 q 278 510 289 556 q 277 406 267 464 q 319 313 287 352 q 396 250 351 274 q 495 216 441 226 q 603 211 549 206 l 603 328 l 486 328 l 486 485 l 800 485 l 800 250 l 800 54 l 800 1 l 616 1 l 525 1 q 396 16 460 1 q 274 59 332 31 q 166 125 216 86 q 80 214 117 165 q 23 322 44 264 q 3 446 3 380 q 14 585 -1 517 q 58 711 28 652 q 135 821 89 771 q 244 906 182 870 q 383 961 306 941 q 551 981 460 981 q 663 972 610 981 q 755 952 715 964 q 820 931 795 941 q 851 916 846 920 l 851 668 q 809 688 837 677 q 744 708 781 699 q 664 720 707 716 q 578 720 621 724 m 684 1130 q 645 1049 671 1082 q 587 998 618 1016 q 520 979 555 981 q 453 991 486 977 q 395 1036 421 1005 q 354 1114 368 1066 l 420 1139 q 514 1056 455 1055 q 615 1158 574 1057 l 684 1130 z "},"|":{"ha":347,"x_min":128,"x_max":264,"o":"m 257 1 l 128 -3 l 134 972 l 264 972 l 257 1 z "},"¥":{"ha":1024,"x_min":0,"x_max":954,"o":"m 632 475 l 659 5 l 416 -8 l 389 449 l 0 838 l 175 986 l 524 610 l 806 972 l 954 864 l 632 475 m 796 336 l 243 326 l 245 473 l 799 465 l 796 336 m 783 151 l 225 132 l 227 281 l 786 273 l 783 151 z "}}}
